<svg width="134" height="125" viewBox="0 0 134 125" fill="none" xmlns="http://www.w3.org/2000/svg">
<path fill-rule="evenodd" clip-rule="evenodd" d="M66.9586 0.571655C48.3336 0.571655 33.2747 15.5825 33.2747 34.1868C33.2747 44.2214 37.7567 53.1157 44.7315 59.261C41.3489 58.1246 37.7969 57.3746 34.0294 57.3744C15.4044 57.3746 0.34552 72.4166 0.34552 90.9898C0.34552 109.594 15.4355 124.571 34.0294 124.571C50.3859 124.571 63.9585 112.978 67.0272 97.5755C70.0973 112.992 83.6697 124.571 100.025 124.571C118.619 124.571 133.674 109.563 133.674 90.9898C133.674 72.3855 118.619 57.3744 100.025 57.3744C96.1792 57.3744 92.5225 58.1494 89.0828 59.3296C96.0993 53.1829 100.608 44.253 100.608 34.1868C100.608 15.5825 85.5523 0.571655 66.9586 0.571655ZM66.9586 9.42118C80.6314 9.42118 91.6898 20.4981 91.6898 34.1868C91.6898 47.8444 80.6314 58.9525 66.9586 58.9525C53.2545 58.9525 42.1588 47.8444 42.1588 34.1868C42.1588 20.4981 53.2545 9.42118 66.9586 9.42118ZM77.9007 65.7782C72.4365 70.5537 68.501 76.9775 67.0272 84.3696C65.5626 77.0259 61.6236 70.6432 56.2222 65.8812C59.6032 67.0151 63.1891 67.7678 66.9586 67.7678C70.8169 67.7678 74.4486 66.9678 77.9007 65.7782ZM34.0294 66.2242C47.7333 66.2242 58.7948 77.301 58.7948 90.9898C58.7948 104.647 47.7022 115.721 34.0294 115.721C20.3253 115.721 9.2638 104.679 9.2638 90.9898C9.2638 77.3322 20.3564 66.2242 34.0294 66.2242ZM100.025 66.2242C113.698 66.2242 124.756 77.301 124.756 90.9898C124.756 104.647 113.698 115.721 100.025 115.721C86.321 115.721 75.2251 104.679 75.2251 90.9898C75.2251 77.3322 86.321 66.2242 100.025 66.2242Z" fill="black"/>
<path d="M66.6953 96.0209L67.5356 96.5653C67.7115 96.6793 67.8375 96.8031 67.9196 96.8936C67.9322 96.9075 67.9441 96.921 67.9552 96.9338C68.781 97.3851 69.5782 97.5884 70.5788 97.5884C71.6232 97.5884 72.5321 97.3531 73.4495 96.8328C74.3384 96.3115 74.9711 95.678 75.4891 94.7636C76.0212 93.8238 76.2505 92.9838 76.2506 91.9513L66.6953 96.0209ZM66.6953 96.0209L65.8595 96.5722M66.6953 96.0209L65.8595 96.5722M65.8595 96.5722C65.7218 96.663 65.6172 96.7565 65.5463 96.8254C65.5196 96.8513 65.4937 96.8778 65.4717 96.9009C64.5924 97.377 63.7489 97.5884 62.7582 97.5884C61.6986 97.5884 60.8852 97.3611 59.9479 96.8281C59.0319 96.3069 58.3993 95.6763 57.8824 94.7636C57.3484 93.8205 57.1209 93.0116 57.1209 91.951C57.1209 90.9137 57.3528 90.0421 57.878 89.112C58.4031 88.2124 59.0482 87.5446 59.9615 86.9976C60.8652 86.4865 61.7024 86.2795 62.7582 86.2795C63.7841 86.2795 64.5879 86.4642 65.4285 86.9096C65.4459 86.9299 65.4648 86.9514 65.4844 86.9726C65.5615 87.0566 65.6768 87.17 65.8339 87.2782L66.6952 87.8716M65.8595 96.5722L66.6952 87.8716M66.6952 87.8716L67.5614 87.2852M66.6952 87.8716L67.5614 87.2852M67.5614 87.2852C67.7564 87.1533 67.8911 87.0076 67.9774 86.901C67.9834 86.8936 67.9892 86.8863 67.9948 86.8791C68.7869 86.4598 69.5944 86.2795 70.5788 86.2795C71.6739 86.2795 72.5441 86.4905 73.4359 86.993C74.3228 87.5407 74.9676 88.2113 75.4935 89.1121M67.5614 87.2852L75.4935 89.1121M75.4935 89.1121C76.0201 90.045 76.2503 90.8861 76.2506 91.951L75.4935 89.1121ZM59.1191 21.5274L59.1282 21.5223L59.1373 21.5171C61.5758 20.0995 63.9354 19.4608 66.7713 19.4608C69.578 19.4608 71.9685 20.1001 74.4053 21.517L74.4052 21.517L74.417 21.5237C76.8472 22.9083 78.5663 24.6247 79.9855 27.0929C81.3767 29.5353 82.013 31.8993 82.013 34.7365C82.013 37.543 81.3766 39.9367 79.9876 42.3766C78.5694 44.8135 76.848 46.5348 74.411 47.953C71.9712 49.3418 69.5776 49.9782 66.7713 49.9782C63.9343 49.9782 61.5706 49.342 59.1281 47.951C56.66 46.5317 54.9434 44.8125 53.5585 42.3821L53.5585 42.382L53.5518 42.3706C52.1351 39.9337 51.4956 37.5431 51.4956 34.7365C51.4956 31.9004 52.1343 29.5409 53.5519 27.1024L53.5571 27.0934L53.5622 27.0844C54.9473 24.6254 56.6604 22.9122 59.1191 21.5274ZM49.7936 54.3856L49.7937 54.3856C50.7249 53.857 51.5978 53.6248 52.6392 53.6248C53.6733 53.6248 54.5128 53.8532 55.4504 54.3855L55.4506 54.3856C56.345 54.8932 56.9577 55.5168 57.5233 56.4641C58.0464 57.39 58.2765 58.2597 58.2765 59.2963C58.2765 60.3497 58.0533 61.1539 57.5278 62.0863C56.9579 63.0136 56.3462 63.6568 55.4839 64.1538C55.4658 64.1578 55.4305 64.165 55.3708 64.1743C55.3587 64.1762 55.3407 64.1789 55.3186 64.1822C55.2442 64.1932 55.1236 64.2111 55.0262 64.2291C54.878 64.2563 54.6849 64.2992 54.4747 64.3769L52.993 64.9251L53.5868 66.3892C53.952 67.2895 54.1605 67.8038 54.1605 68.3861C54.1605 69.4503 53.9263 70.2992 53.4105 71.1787L53.4059 71.1865L53.4015 71.1944C52.8773 72.1128 52.2391 72.7573 51.3558 73.27L51.3558 73.27L51.3449 73.2764C50.4712 73.7933 49.6142 73.989 48.5231 73.989C47.3931 73.989 46.5466 73.7901 45.7172 73.2859L45.6962 73.2731L45.6747 73.261C44.7682 72.7491 44.1324 72.1086 43.6107 71.1944L43.6062 71.1865L43.6017 71.1787C43.0859 70.2992 42.8517 69.4503 42.8517 68.3861C42.8517 67.3593 43.0829 66.5031 43.6107 65.578L43.6109 65.5777C44.1062 64.7092 44.7167 64.1259 45.6438 63.5975C45.6636 63.5933 45.7 63.5863 45.7589 63.5775C45.7721 63.5755 45.7917 63.5728 45.8156 63.5694C45.8932 63.5585 46.0161 63.5411 46.1146 63.5238C46.2652 63.4974 46.464 63.4553 46.6794 63.3771L48.1924 62.8274L47.5682 61.3436C47.1817 60.4246 46.9677 59.9042 46.9677 59.2963C46.9677 58.2025 47.1788 57.3759 47.713 56.4775L47.7209 56.4642L47.7285 56.4507C48.2484 55.5347 48.878 54.9052 49.7936 54.3856ZM78.1629 56.9049L78.1758 56.8838L78.188 56.8624C78.708 55.9465 79.3376 55.3167 80.2531 54.7972C81.1846 54.2687 82.0575 54.0363 83.0987 54.0363C84.1329 54.0363 84.9723 54.2647 85.91 54.797L85.9101 54.7971C86.8073 55.3063 87.4207 55.9318 87.9875 56.8836C88.5017 57.7668 88.736 58.6311 88.736 59.7078C88.736 60.0708 88.6361 60.3419 88.4471 60.855C88.3866 61.0192 88.3169 61.2081 88.2385 61.4328L87.8164 62.6427L88.9327 63.2718C89.82 63.7718 90.4373 64.4041 91.0084 65.3261C91.5295 66.2441 91.7546 67.0646 91.7546 68.1116C91.7546 69.1343 91.5265 69.9867 91.0039 70.9053C90.4445 71.8355 89.8354 72.443 88.9329 72.9514L88.9328 72.9514C87.989 73.4832 87.1478 73.7146 86.1173 73.7146C85.0794 73.7146 84.2042 73.4793 83.2677 72.9515L83.2674 72.9514C82.3431 72.4306 81.718 71.8176 81.2043 70.919L81.1965 70.9054L81.1885 70.8921C80.6549 70.0011 80.4458 69.1916 80.4458 68.1116C80.4458 67.9311 80.4834 67.7287 80.5734 67.4486C80.6191 67.3063 80.6731 67.159 80.7389 66.9828C80.746 66.964 80.7532 66.9446 80.7606 66.9248C80.8184 66.7704 80.8856 66.5909 80.9474 66.4093L81.3551 65.2096L80.2531 64.5843C79.3374 64.0646 78.7077 63.4351 78.1882 62.5194L78.1759 62.4978L78.1629 62.4766C77.6411 61.6227 77.4272 60.777 77.4272 59.7078C77.4272 58.6034 77.6431 57.7555 78.1629 56.9049ZM20.7255 83.7685L20.7256 83.7685L20.7323 83.7568C22.1088 81.3406 23.8851 79.6141 26.3399 78.1858C28.7934 76.7892 31.1542 76.1264 33.9451 76.1264C36.767 76.1264 39.1361 76.7893 41.6225 78.1879C44.05 79.601 45.7394 81.3187 47.1613 83.7627C48.5573 86.2145 49.2211 88.5785 49.2211 91.4024C49.2211 94.1965 48.5565 96.5915 47.1611 99.0422C45.7376 101.489 44.0485 103.2 41.6251 104.581L41.6201 104.584C39.1474 106.005 36.7507 106.644 33.9451 106.644C31.1122 106.644 28.7866 106.007 26.3456 104.588L26.3456 104.588L26.3338 104.581C23.885 103.186 22.1096 101.465 20.7323 99.0478L20.7323 99.0477L20.7255 99.0361C19.314 96.6085 18.7034 94.2507 18.7034 91.4024C18.7034 88.5834 19.3147 86.1948 20.7255 83.7685ZM86.5839 83.7684L86.584 83.7684L86.5906 83.7569C87.9674 81.3405 89.7436 79.614 92.1983 78.1858C94.6501 76.7901 97.0141 76.1264 99.8379 76.1264C102.632 76.1264 105.027 76.7909 107.478 78.186C109.915 79.604 111.636 81.3256 113.054 83.7627C114.444 86.2037 115.079 88.5664 115.079 91.4024C115.079 94.2086 114.443 96.6023 113.054 99.0422C111.635 101.481 109.915 103.196 107.484 104.581L107.483 104.581L107.472 104.588C105.035 106.004 102.644 106.644 99.8379 106.644C97.0017 106.644 94.6421 106.005 92.204 104.588L92.204 104.588L92.1923 104.581C89.7435 103.186 87.9683 101.465 86.5906 99.0477L86.5906 99.0477L86.5839 99.0362C85.1725 96.6084 84.5619 94.2507 84.5619 91.4024C84.5619 88.5835 85.1733 86.1948 86.5839 83.7684Z" fill="#ACACAC" stroke="black" stroke-width="3.06335"/>
</svg>
