<svg width="154" height="116" viewBox="0 0 154 116" fill="none" xmlns="http://www.w3.org/2000/svg">
<path fill-rule="evenodd" clip-rule="evenodd" d="M20.8118 0.202759C9.47281 0.202759 0.230957 9.45294 0.230957 20.8521C0.230957 29.108 5.1258 36.1877 12.1334 39.4777C5.11922 42.7517 0.230957 49.8349 0.230957 58.1032C0.230957 66.349 5.11922 73.4221 12.1334 76.6944C5.1258 79.976 0.230957 87.0512 0.230957 95.2858C0.230957 106.625 9.47281 115.832 20.8118 115.832C29.1197 115.832 36.2247 110.904 39.4714 103.827C42.7283 110.897 49.8507 115.832 58.1314 115.832C66.4397 115.832 73.5444 110.904 76.7914 103.827C80.0432 110.891 87.1373 115.832 95.417 115.832C103.835 115.832 111.055 110.78 114.248 103.552C117.453 110.772 124.68 115.832 133.114 115.832C144.482 115.832 153.729 106.625 153.729 95.2858C153.729 87.0489 148.82 79.9793 141.792 76.6944C148.827 73.4232 153.729 66.351 153.729 58.1032C153.729 49.8602 148.821 42.7947 141.792 39.5118C148.829 36.2261 153.729 29.1158 153.729 20.8521C153.729 9.45269 144.482 0.202759 133.114 0.202759C124.679 0.202759 117.453 5.29844 114.248 12.5512C111.055 5.29111 103.835 0.202759 95.417 0.202759C87.1355 0.202759 80.0386 5.17475 76.7914 12.2767C73.5454 5.16691 66.4412 0.202759 58.1314 0.202759C49.8492 0.202759 42.7273 5.17374 39.4714 12.2767C36.2257 5.16691 29.1213 0.202759 20.8118 0.202759ZM20.8118 6.7541C28.5468 6.7541 34.8751 13.0657 34.8751 20.8521C34.8751 28.6072 28.5468 34.9157 20.8118 34.9157C13.0764 34.9157 6.71375 28.6072 6.71375 20.8521C6.71375 13.0657 13.0764 6.7541 20.8118 6.7541ZM58.1314 6.7541C65.8976 6.7541 72.195 13.0657 72.195 20.8521C72.195 28.6072 65.8976 34.9157 58.1314 34.9157C50.3961 34.9157 44.0337 28.6072 44.0337 20.8521C44.0337 13.0657 50.3961 6.7541 58.1314 6.7541ZM95.417 6.7541C103.183 6.7541 109.48 13.0657 109.48 20.8521C109.48 28.6072 103.183 34.9157 95.417 34.9157C87.6816 34.9157 81.319 28.6072 81.319 20.8521C81.319 13.0657 87.6816 6.7541 95.417 6.7541ZM133.114 6.7541C140.869 6.7541 147.178 13.0657 147.178 20.8521C147.178 28.6072 140.869 34.9157 133.114 34.9157C125.328 34.9157 119.016 28.6072 119.016 20.8521C119.016 13.0657 125.328 6.7541 133.114 6.7541ZM114.248 29.153C116.269 33.7167 119.914 37.3669 124.436 39.4777C119.903 41.5813 116.235 45.2332 114.214 49.8023C112.197 45.2618 108.559 41.6147 104.061 39.5118C108.58 37.3998 112.232 33.7266 114.248 29.153ZM39.4714 29.4274C41.5073 33.8586 45.0482 37.4096 49.4531 39.4777C45.0285 41.5432 41.4717 45.1134 39.4373 49.5623C37.4049 45.1382 33.8641 41.5755 29.4556 39.5118C33.876 37.4433 37.4381 33.8713 39.4714 29.4274ZM76.7914 29.4274C78.8225 33.8594 82.372 37.4104 86.7731 39.4777C82.3522 41.5424 78.7868 45.1126 76.757 49.5623C74.7246 45.1382 71.1837 41.5755 66.7753 39.5118C71.1956 37.4433 74.7578 33.8713 76.7914 29.4274ZM20.8118 44.0055C28.5468 44.0055 34.8751 50.3621 34.8751 58.1032C34.8751 65.8444 28.5468 72.1668 20.8118 72.1668C13.0764 72.1668 6.71375 65.8444 6.71375 58.1032C6.71375 50.331 13.0764 44.0055 20.8118 44.0055ZM58.1314 44.0055C65.8976 44.0055 72.195 50.3621 72.195 58.1032C72.195 65.8444 65.8976 72.1668 58.1314 72.1668C50.3961 72.1668 44.0337 65.8444 44.0337 58.1032C44.0337 50.331 50.3961 44.0055 58.1314 44.0055ZM95.417 44.0055C103.183 44.0055 109.48 50.3621 109.48 58.1032C109.48 65.8444 103.183 72.1668 95.417 72.1668C87.6816 72.1668 81.319 65.8444 81.319 58.1032C81.319 50.331 87.6816 44.0055 95.417 44.0055ZM133.114 44.0055C140.869 44.0055 147.178 50.3621 147.178 58.1032C147.178 65.8444 140.869 72.1668 133.114 72.1668C125.328 72.1668 119.016 65.8444 119.016 58.1032C119.016 50.331 125.328 44.0055 133.114 44.0055ZM114.248 66.3697C116.291 70.9707 119.981 74.6742 124.573 76.7632C120.024 78.8651 116.281 82.4072 114.248 86.9849C112.221 82.3981 108.471 78.8626 103.924 76.7632C108.507 74.6719 112.212 70.9757 114.248 66.3697ZM39.4714 66.6442C41.5094 71.066 45.0424 74.6368 49.4531 76.6944C45.0406 78.7609 41.5056 82.3142 39.4714 86.7449C37.4421 82.3066 33.8767 78.7624 29.4556 76.6944C33.8747 74.6352 37.4383 71.0736 39.4714 66.6442ZM76.7914 66.6442C78.8245 71.0668 82.3664 74.6375 86.7731 76.6944C82.3697 78.7594 78.8248 82.3213 76.7914 86.7449C74.7621 82.3066 71.1966 78.7624 66.7753 76.6944C71.1944 74.6352 74.7583 71.0736 76.7914 66.6442ZM20.8118 81.1881C28.5468 81.1881 34.8751 87.5505 34.8751 95.2858C34.8751 103.021 28.5468 109.349 20.8118 109.349C13.0764 109.349 6.71375 103.021 6.71375 95.2858C6.71375 87.5505 13.0764 81.1881 20.8118 81.1881ZM58.1314 81.1881C65.8976 81.1881 72.195 87.5505 72.195 95.2858C72.195 103.021 65.8976 109.349 58.1314 109.349C50.3961 109.349 44.0337 103.021 44.0337 95.2858C44.0337 87.5505 50.3961 81.1881 58.1314 81.1881ZM95.417 81.1881C103.183 81.1881 109.48 87.5505 109.48 95.2858C109.48 103.021 103.183 109.349 95.417 109.349C87.6816 109.349 81.319 103.021 81.319 95.2858C81.319 87.5505 87.6816 81.1881 95.417 81.1881ZM133.114 81.1881C140.869 81.1881 147.178 87.5505 147.178 95.2858C147.178 103.021 140.869 109.349 133.114 109.349C125.328 109.349 119.016 103.021 119.016 95.2858C119.016 87.5505 125.328 81.1881 133.114 81.1881Z" fill="black"/>
<mask id="path-2-inside-1_5_46" fill="white">
<path fill-rule="evenodd" clip-rule="evenodd" d="M21.2905 11.2489C19.4552 11.2489 17.869 11.6536 16.2826 12.5867C14.6651 13.5198 13.5486 14.6704 12.6467 16.2568C11.7136 17.8432 11.3088 19.3986 11.3088 21.265C11.3088 23.1 11.7136 24.6209 12.6467 26.2385C13.5486 27.8249 14.6651 28.9755 16.2826 29.9089C17.869 30.842 19.4552 31.2464 21.2905 31.2464C23.1258 31.2466 24.712 30.842 26.2987 29.9089C27.8849 28.9755 29.0355 27.8249 29.9688 26.2385C30.8708 24.6212 31.3066 23.1 31.3066 21.265C31.3066 19.3986 30.8708 17.8432 29.9688 16.2568C29.0357 14.6704 27.8851 13.5198 26.2987 12.5867C24.7123 11.6533 23.1258 11.2489 21.2905 11.2489ZM58.4731 11.2489C56.6378 11.2489 55.0516 11.6536 53.4652 12.5867C51.8477 13.5198 50.7312 14.6704 49.8292 16.2568C48.8959 17.8432 48.4914 19.3986 48.4914 21.265C48.4914 23.1 48.8959 24.6209 49.8292 26.2385C50.7312 27.8249 51.8477 28.9755 53.4652 29.9089C55.0516 30.842 56.6378 31.2464 58.4731 31.2464C60.3084 31.2466 61.8946 30.842 63.4811 29.9089C65.0675 28.9755 66.2181 27.8249 67.1514 26.2385C68.0534 24.6212 68.4892 23.1 68.4892 21.265C68.4892 19.3986 68.0534 17.8432 67.1514 16.2568C66.2183 14.6704 65.0675 13.5198 63.4811 12.5867C61.8949 11.6533 60.3084 11.2489 58.4731 11.2489ZM95.7931 11.2489C93.9577 11.2489 92.4024 11.6536 90.7849 12.5867C89.1987 13.5198 88.0822 14.6704 87.1489 16.2568C86.2469 17.8432 85.8114 19.3986 85.8114 21.265C85.8114 23.1 86.2469 24.6209 87.1489 26.2385C88.082 27.8249 89.1984 28.9755 90.7849 29.9089C92.4024 30.842 93.9577 31.2464 95.7931 31.2464C97.6281 31.2466 99.2145 30.842 100.801 29.9089C102.387 28.9755 103.569 27.8249 104.471 26.2385C105.404 24.6212 105.809 23.1 105.809 21.265C105.809 19.3986 105.404 17.8432 104.471 16.2568C103.569 14.6704 102.387 13.5198 100.801 12.5867C99.2145 11.6533 97.6281 11.2489 95.7931 11.2489ZM133.421 11.2489C131.555 11.2489 130.031 11.6536 128.413 12.5867C126.827 13.5198 125.676 14.6704 124.743 16.2568C123.81 17.8432 123.405 19.3986 123.405 21.265C123.405 23.1 123.81 24.6209 124.743 26.2385C125.676 27.8249 126.827 28.9755 128.413 29.9089C130.031 30.842 131.586 31.2464 133.421 31.2464C135.288 31.2466 136.809 30.842 138.395 29.9089C140.013 28.9755 141.132 27.8249 142.065 26.2385C142.999 24.6212 143.403 23.1 143.403 21.265C143.403 19.3986 142.999 17.8432 142.065 16.2568C141.132 14.6704 140.013 13.5198 138.395 12.5867C136.809 11.6533 135.257 11.2489 133.421 11.2489ZM39.7105 16.4627C38.8401 16.4627 38.0863 16.6807 37.3093 17.1145C36.5323 17.5481 35.9951 18.0894 35.56 18.8638C35.0938 19.6072 34.9082 20.3663 34.9082 21.265C34.9082 22.1323 35.0936 22.8914 35.56 23.6659C35.9951 24.4095 36.532 24.9472 37.3093 25.381C38.0863 25.8148 38.8401 26.0328 39.7105 26.0328C40.5808 26.0328 41.2999 25.8148 42.0772 25.381C42.8231 24.9472 43.3945 24.4095 43.8609 23.6659C44.2959 22.8914 44.4783 22.1323 44.4783 21.265C44.4783 20.3663 44.2959 19.6072 43.8609 18.8638C43.3945 18.0891 42.8231 17.5481 42.0772 17.1145C41.3001 16.6807 40.5806 16.4627 39.7105 16.4627ZM76.893 16.4627C76.0199 16.4627 75.2715 16.6807 74.4919 17.1145C73.7124 17.5481 73.1792 18.0894 72.7426 18.8638C72.2747 19.6072 72.0908 20.3663 72.0908 21.265C72.0908 22.1323 72.2749 22.8914 72.7426 23.6659C73.1789 24.4095 73.7124 24.9472 74.4919 25.381C75.2715 25.8148 76.0199 26.0328 76.893 26.0328C77.7659 26.0328 78.5114 25.8148 79.2598 25.381C80.0391 24.9472 80.6069 24.4095 81.0435 23.6659C81.5112 22.8914 81.6609 22.1323 81.6609 21.265C81.6607 20.3663 81.5109 19.6072 81.0435 18.8638C80.6069 18.0891 80.0394 17.5481 79.2598 17.1145C78.5114 16.6807 77.7659 16.4627 76.893 16.4627ZM114.624 16.4627C113.754 16.4627 113 16.6807 112.223 17.1145C111.477 17.5481 110.909 18.0894 110.474 18.8638C110.039 19.6072 109.822 20.3663 109.822 21.265C109.822 22.1323 110.039 22.8914 110.474 23.6659C110.909 24.4095 111.477 24.9472 112.223 25.381C113 25.8148 113.754 26.0328 114.624 26.0328C115.526 26.0328 116.245 25.8148 116.991 25.381C117.768 24.9472 118.34 24.4095 118.775 23.6659C119.21 22.8914 119.392 22.1323 119.392 21.265C119.392 20.3663 119.21 19.6072 118.775 18.8638C118.34 18.0891 117.768 17.5481 116.991 17.1145C116.245 16.6807 115.526 16.4627 114.624 16.4627ZM21.1876 35.2598C20.3175 35.2598 19.5326 35.411 18.7867 35.8772C18.0097 36.3122 17.4725 36.8839 17.0371 37.6609C16.571 38.4068 16.3856 39.1606 16.3856 40.062C16.3856 40.9321 16.571 41.6518 17.0371 42.4288C17.4725 43.1747 18.0097 43.743 18.7867 44.1781C19.5326 44.6132 20.2864 44.8299 21.1876 44.8299C22.0579 44.8299 22.7773 44.6132 23.5546 44.1781C24.3005 43.743 24.8719 43.1747 25.3381 42.4288C25.7734 41.6518 25.9555 40.9321 25.9555 40.062C25.9557 39.1606 25.7734 38.4068 25.3381 37.6609C24.8719 36.8839 24.3005 36.3122 23.5546 35.8772C22.7773 35.411 22.0891 35.2598 21.1876 35.2598ZM59.3306 35.2598C58.4294 35.2598 57.6756 35.411 56.9297 35.8772C56.1524 36.3122 55.581 36.8839 55.146 37.6609C54.7109 38.4068 54.5286 39.1606 54.5286 40.062C54.5286 40.9321 54.7107 41.6518 55.146 42.4288C55.581 43.1747 56.1524 43.743 56.9297 44.1781C57.6756 44.6132 58.4294 44.8299 59.3306 44.8299C60.2009 44.8299 60.9203 44.6132 61.6976 44.1781C62.4435 43.743 63.0116 43.1747 63.4469 42.4288C63.882 41.6518 64.0984 40.9321 64.0984 40.062C64.0987 39.1606 63.882 38.4068 63.4469 37.6609C63.0116 36.8839 62.4435 36.3122 61.6976 35.8772C60.9205 35.411 60.2009 35.2598 59.3306 35.2598ZM96.1016 35.2598C95.2032 35.2598 94.4753 35.411 93.7005 35.8772C92.9569 36.3122 92.385 36.8839 91.9512 37.6609C91.5174 38.4068 91.2993 39.1606 91.2993 40.062C91.2993 40.9321 91.5174 41.6518 91.9512 42.4288C92.385 43.1747 92.9569 43.743 93.7005 44.1781C94.475 44.6132 95.2341 44.8299 96.1016 44.8299C97.0001 44.8299 97.7591 44.6132 98.5027 44.1781C99.2772 43.743 99.7841 43.1747 100.218 42.4288C100.651 41.6518 100.87 40.9321 100.87 40.062C100.87 39.1606 100.651 38.4068 100.218 37.6609C99.7841 36.8839 99.2772 36.3122 98.5027 35.8772C97.7591 35.411 96.9692 35.2598 96.1016 35.2598ZM133.421 35.2598C132.523 35.2598 131.795 35.411 131.02 35.8772C130.277 36.3122 129.705 36.8839 129.271 37.6609C128.837 38.4068 128.619 39.1606 128.619 40.062C128.619 40.9321 128.837 41.6518 129.271 42.4288C129.705 43.1747 130.277 43.743 131.02 44.1781C131.795 44.6132 132.554 44.8299 133.421 44.8299C134.32 44.8299 135.079 44.6132 135.822 44.1781C136.597 43.743 137.104 43.1747 137.538 42.4288C137.971 41.6518 138.189 40.9321 138.189 40.062C138.189 39.1606 137.971 38.4068 137.538 37.6609C137.104 36.8839 136.597 36.3122 135.822 35.8772C135.079 35.411 134.289 35.2598 133.421 35.2598ZM21.2905 48.5686C19.4552 48.5686 17.869 48.9718 16.2826 49.9064C14.6651 50.8099 13.5486 51.9567 12.6467 53.5767C11.7136 55.1654 11.3088 56.7466 11.3088 58.5847C11.3088 60.3916 11.7136 61.9695 12.6467 63.5584C13.5486 65.1471 14.6651 66.3251 16.2826 67.2286C17.869 68.1632 19.4552 68.5663 21.2905 68.5663C23.1258 68.5663 24.712 68.1632 26.2987 67.2286C27.8849 66.3251 29.0355 65.1471 29.9688 63.5584C30.8708 61.9695 31.3066 60.3916 31.3066 58.5847C31.3066 56.7466 30.8708 55.1654 29.9688 53.5767C29.0357 51.9567 27.8851 50.8099 26.2987 49.9064C24.7123 48.9718 23.1258 48.5686 21.2905 48.5686ZM58.4731 48.5686C56.6378 48.5686 55.0516 48.9718 53.4652 49.9064C51.8477 50.8099 50.7312 51.9567 49.8292 53.5767C48.8959 55.1654 48.4914 56.7466 48.4914 58.5847C48.4914 60.3916 48.8959 61.9695 49.8292 63.5584C50.7312 65.1471 51.8477 66.3251 53.4652 67.2286C55.0516 68.1632 56.6378 68.5663 58.4731 68.5663C60.3084 68.5663 61.8946 68.1632 63.4811 67.2286C65.0675 66.3251 66.2181 65.1471 67.1514 63.5584C68.0534 61.9695 68.4892 60.3916 68.4892 58.5847C68.4892 56.7466 68.0534 55.1654 67.1514 53.5767C66.2183 51.9567 65.0675 50.8099 63.4811 49.9064C61.8949 48.9718 60.3084 48.5686 58.4731 48.5686ZM95.7931 48.5686C93.9577 48.5686 92.4024 48.9718 90.7849 49.9064C89.1987 50.8099 88.0822 51.9567 87.1489 53.5767C86.2469 55.1654 85.8114 56.7466 85.8114 58.5847C85.8114 60.3916 86.2469 61.9695 87.1489 63.5584C88.082 65.1471 89.1984 66.3251 90.7849 67.2286C92.4024 68.1632 93.9577 68.5663 95.7931 68.5663C97.6281 68.5663 99.2145 68.1632 100.801 67.2286C102.387 66.3251 103.569 65.1471 104.471 63.5584C105.404 61.9695 105.809 60.3916 105.809 58.5847C105.809 56.7466 105.404 55.1654 104.471 53.5767C103.569 51.9567 102.387 50.8099 100.801 49.9064C99.2145 48.9718 97.6281 48.5686 95.7931 48.5686ZM133.421 48.5686C131.555 48.5686 130.031 48.9718 128.413 49.9064C126.827 50.8099 125.676 51.9567 124.743 53.5767C123.81 55.1654 123.405 56.7466 123.405 58.5847C123.405 60.3916 123.81 61.9695 124.743 63.5584C125.676 65.1471 126.827 66.3251 128.413 67.2286C130.031 68.1632 131.586 68.5663 133.421 68.5663C135.288 68.5663 136.809 68.1632 138.395 67.2286C140.013 66.3251 141.132 65.1471 142.065 63.5584C142.999 61.9695 143.403 60.3916 143.403 58.5847C143.403 56.7466 142.999 55.1654 142.065 53.5767C141.132 51.9567 140.013 50.8099 138.395 49.9064C136.809 48.9718 135.257 48.5686 133.421 48.5686ZM39.7105 52.9593C38.8401 52.9593 38.0863 53.1402 37.3093 53.5767C36.5323 54.0133 35.9951 54.5807 35.56 55.3602C35.0938 56.1087 34.9082 56.8571 34.9082 57.7613C34.9082 58.6345 35.0936 59.3799 35.56 60.1281C35.9951 60.9076 36.532 61.4411 37.3093 61.8776C38.0863 62.3142 38.8401 62.5292 39.7105 62.5292C40.5808 62.5292 41.2999 62.314 42.0772 61.8776C42.8231 61.4411 43.3945 60.9076 43.8609 60.1281C44.2959 59.3796 44.4783 58.6345 44.4783 57.7613C44.4783 56.8571 44.2959 56.1087 43.8609 55.3602C43.3945 54.5807 42.8231 54.0131 42.0772 53.5767C41.3001 53.1402 40.5806 52.9593 39.7105 52.9593ZM76.893 52.9593C76.0199 52.9593 75.2715 53.1402 74.4919 53.5767C73.7124 54.0133 73.1792 54.5807 72.7426 55.3602C72.2747 56.1087 72.0908 56.8571 72.0908 57.7613C72.0908 58.6345 72.2749 59.3799 72.7426 60.1281C73.1789 60.9076 73.7124 61.4411 74.4919 61.8776C75.2715 62.3142 76.0199 62.5292 76.893 62.5292C77.7659 62.5292 78.5114 62.314 79.2598 61.8776C80.0391 61.4411 80.6069 60.9076 81.0435 60.1281C81.5112 59.3796 81.6609 58.6345 81.6609 57.7613C81.6607 56.8571 81.5109 56.1087 81.0435 55.3602C80.6069 54.5807 80.0394 54.0131 79.2598 53.5767C78.5114 53.1402 77.7659 52.9593 76.893 52.9593ZM114.624 52.9593C113.754 52.9593 113 53.1402 112.223 53.5767C111.477 54.0133 110.909 54.5807 110.474 55.3602C110.039 56.1087 109.822 56.8571 109.822 57.7613C109.822 58.6345 110.039 59.3799 110.474 60.1281C110.909 60.9076 111.477 61.4411 112.223 61.8776C113 62.3142 113.754 62.5292 114.624 62.5292C115.526 62.5292 116.245 62.314 116.991 61.8776C117.768 61.4411 118.34 60.9076 118.775 60.1281C119.21 59.3796 119.392 58.6345 119.392 57.7613C119.392 56.8571 119.21 56.1087 118.775 55.3602C118.34 54.5807 117.768 54.0131 116.991 53.5767C116.245 53.1402 115.526 52.9593 114.624 52.9593ZM21.1876 72.4423C20.3175 72.4423 19.5326 72.6247 18.7867 73.0598C18.0097 73.4948 17.4725 74.0976 17.0371 74.8435C16.571 75.6205 16.3856 76.3743 16.3856 77.2446C16.3856 78.1458 16.571 78.8655 17.0371 79.6114C17.4725 80.3884 18.0097 80.9256 18.7867 81.3607C19.5326 81.7957 20.2864 82.0125 21.1876 82.0125C22.0579 82.0125 22.7773 81.7957 23.5546 81.3607C24.3005 80.9256 24.8719 80.3884 25.3381 79.6114C25.7734 78.8655 25.9555 78.1147 25.9555 77.2446C25.9557 76.3432 25.7734 75.6205 25.3381 74.8435C24.8719 74.0976 24.3005 73.4948 23.5546 73.0598C22.7773 72.6247 22.0891 72.4423 21.1876 72.4423ZM59.3306 72.4423C58.4294 72.4423 57.6756 72.6247 56.9297 73.0598C56.1524 73.4948 55.581 74.0976 55.146 74.8435C54.7109 75.6205 54.5286 76.3743 54.5286 77.2446C54.5286 78.1458 54.7107 78.8655 55.146 79.6114C55.581 80.3884 56.1524 80.9256 56.9297 81.3607C57.6756 81.7957 58.4294 82.0125 59.3306 82.0125C60.2009 82.0125 60.9203 81.7957 61.6976 81.3607C62.4435 80.9256 63.0116 80.3884 63.4469 79.6114C63.882 78.8655 64.0984 78.1147 64.0984 77.2446C64.0987 76.3432 63.882 75.6205 63.4469 74.8435C63.0116 74.0976 62.4435 73.4948 61.6976 73.0598C60.9205 72.6247 60.2009 72.4423 59.3306 72.4423ZM96.1016 72.4423C95.2032 72.4423 94.4753 72.6247 93.7005 73.0598C92.9569 73.4948 92.385 74.0976 91.9512 74.8435C91.5174 75.6205 91.2993 76.3743 91.2993 77.2446C91.2993 78.1458 91.5174 78.8655 91.9512 79.6114C92.385 80.3884 92.9569 80.9256 93.7005 81.3607C94.475 81.7957 95.2341 82.0125 96.1016 82.0125C97.0001 82.0125 97.7591 81.7957 98.5027 81.3607C99.2772 80.9256 99.7841 80.3884 100.218 79.6114C100.651 78.8655 100.87 78.1147 100.87 77.2446C100.87 76.3432 100.651 75.6205 100.218 74.8435C99.7841 74.0976 99.2772 73.4948 98.5027 73.0598C97.7591 72.6247 96.9692 72.4423 96.1016 72.4423ZM133.421 72.4423C132.523 72.4423 131.795 72.6247 131.02 73.0598C130.277 73.4948 129.705 74.0976 129.271 74.8435C128.837 75.6205 128.619 76.3743 128.619 77.2446C128.619 78.1458 128.837 78.8655 129.271 79.6114C129.705 80.3884 130.277 80.9256 131.02 81.3607C131.795 81.7957 132.554 82.0125 133.421 82.0125C134.32 82.0125 135.079 81.7957 135.822 81.3607C136.597 80.9256 137.104 80.3884 137.538 79.6114C137.971 78.8655 138.189 78.1147 138.189 77.2446C138.189 76.3432 137.971 75.6205 137.538 74.8435C137.104 74.0976 136.597 73.4948 135.822 73.0598C135.079 72.6247 134.289 72.4423 133.421 72.4423ZM21.2905 85.7512C19.4552 85.7512 17.869 86.187 16.2826 87.089C14.6651 88.022 13.5486 89.1385 12.6467 90.7249C11.7136 92.3425 11.3088 93.8978 11.3088 95.7328C11.3088 97.5682 11.7136 99.1546 12.6467 100.741C13.5486 102.327 14.6651 103.509 16.2826 104.411C17.869 105.344 19.4552 105.749 21.2905 105.749C23.1258 105.749 24.712 105.344 26.2987 104.411C27.8849 103.509 29.0355 102.327 29.9688 100.741C30.8708 99.1546 31.3066 97.5682 31.3066 95.7328C31.3066 93.8978 30.8708 92.3425 29.9688 90.7249C29.0357 89.1385 27.8851 88.022 26.2987 87.089C24.7123 86.187 23.1258 85.7512 21.2905 85.7512ZM58.4731 85.7512C56.6378 85.7512 55.0516 86.187 53.4652 87.089C51.8477 88.022 50.7312 89.1385 49.8292 90.7249C48.8959 92.3425 48.4914 93.8978 48.4914 95.7328C48.4914 97.5682 48.8959 99.1546 49.8292 100.741C50.7312 102.327 51.8477 103.509 53.4652 104.411C55.0516 105.344 56.6378 105.749 58.4731 105.749C60.3084 105.749 61.8946 105.344 63.4811 104.411C65.0675 103.509 66.2181 102.327 67.1514 100.741C68.0534 99.1546 68.4892 97.5682 68.4892 95.7328C68.4892 93.8978 68.0534 92.3425 67.1514 90.7249C66.2183 89.1385 65.0675 88.022 63.4811 87.089C61.8949 86.187 60.3084 85.7512 58.4731 85.7512ZM95.7931 85.7512C93.9577 85.7512 92.4024 86.187 90.7849 87.089C89.1987 88.022 88.0822 89.1385 87.1489 90.7249C86.2469 92.3425 85.8114 93.8978 85.8114 95.7328C85.8114 97.5682 86.2469 99.1546 87.1489 100.741C88.082 102.327 89.1984 103.509 90.7849 104.411C92.4024 105.344 93.9577 105.749 95.7931 105.749C97.6281 105.749 99.2145 105.344 100.801 104.411C102.387 103.509 103.569 102.327 104.471 100.741C105.404 99.1546 105.809 97.5682 105.809 95.7328C105.809 93.8978 105.404 92.3425 104.471 90.7249C103.569 89.1385 102.387 88.022 100.801 87.089C99.2145 86.187 97.6281 85.7512 95.7931 85.7512ZM133.421 85.7512C131.555 85.7512 130.031 86.187 128.413 87.089C126.827 88.022 125.676 89.1385 124.743 90.7249C123.81 92.3425 123.405 93.8978 123.405 95.7328C123.405 97.5682 123.81 99.1546 124.743 100.741C125.676 102.327 126.827 103.509 128.413 104.411C130.031 105.344 131.586 105.749 133.421 105.749C135.288 105.749 136.809 105.344 138.395 104.411C140.013 103.509 141.132 102.327 142.065 100.741C142.999 99.1546 143.403 97.5682 143.403 95.7328C143.403 93.8978 142.999 92.3425 142.065 90.7249C141.132 89.1385 140.013 88.022 138.395 87.089C136.809 86.187 135.257 85.7512 133.421 85.7512ZM39.7105 90.1419C38.8401 90.1417 38.0863 90.3597 37.3093 90.7935C36.5323 91.2273 35.9951 91.7994 35.56 92.5428C35.0938 93.3175 34.9082 94.0764 34.9082 94.9439C34.9082 95.8424 35.0936 96.6014 35.56 97.3451C35.9951 98.1196 36.532 98.6265 37.3093 99.0602C38.0863 99.4938 38.8401 99.7118 39.7105 99.7118C40.5808 99.7118 41.2999 99.4938 42.0772 99.0602C42.8231 98.6265 43.3945 98.1196 43.8609 97.3451C44.2959 96.6014 44.4783 95.8115 44.4783 94.9439C44.4783 94.0455 44.2959 93.3175 43.8609 92.5428C43.3945 91.7994 42.8231 91.2273 42.0772 90.7935C41.3001 90.3597 40.5806 90.1419 39.7105 90.1419ZM76.893 90.1419C76.0199 90.1417 75.2715 90.3597 74.4919 90.7935C73.7124 91.2273 73.1792 91.7994 72.7426 92.5428C72.2747 93.3175 72.0908 94.0764 72.0908 94.9439C72.0908 95.8424 72.2749 96.6014 72.7426 97.3451C73.1789 98.1196 73.7124 98.6265 74.4919 99.0602C75.2715 99.4938 76.0199 99.7118 76.893 99.7118C77.7659 99.7118 78.5114 99.4938 79.2598 99.0602C80.0391 98.6265 80.6069 98.1196 81.0435 97.3451C81.5112 96.6014 81.6609 95.8115 81.6609 94.9439C81.6607 94.0455 81.5109 93.3175 81.0435 92.5428C80.6069 91.7994 80.0394 91.2273 79.2598 90.7935C78.5114 90.3597 77.7659 90.1419 76.893 90.1419ZM114.624 90.1419C113.754 90.1417 113 90.3597 112.223 90.7935C111.477 91.2273 110.909 91.7994 110.474 92.5428C110.039 93.3175 109.822 94.0764 109.822 94.9439C109.822 95.8424 110.039 96.6014 110.474 97.3451C110.909 98.1196 111.477 98.6265 112.223 99.0602C113 99.4938 113.754 99.7118 114.624 99.7118C115.526 99.7118 116.245 99.4938 116.991 99.0602C117.768 98.6265 118.34 98.1196 118.775 97.3451C119.21 96.6014 119.392 95.8115 119.392 94.9439C119.392 94.0455 119.21 93.3175 118.775 92.5428C118.34 91.7994 117.768 91.2273 116.991 90.7935C116.245 90.3597 115.526 90.1419 114.624 90.1419Z"/>
</mask>
<path fill-rule="evenodd" clip-rule="evenodd" d="M21.2905 11.2489C19.4552 11.2489 17.869 11.6536 16.2826 12.5867C14.6651 13.5198 13.5486 14.6704 12.6467 16.2568C11.7136 17.8432 11.3088 19.3986 11.3088 21.265C11.3088 23.1 11.7136 24.6209 12.6467 26.2385C13.5486 27.8249 14.6651 28.9755 16.2826 29.9089C17.869 30.842 19.4552 31.2464 21.2905 31.2464C23.1258 31.2466 24.712 30.842 26.2987 29.9089C27.8849 28.9755 29.0355 27.8249 29.9688 26.2385C30.8708 24.6212 31.3066 23.1 31.3066 21.265C31.3066 19.3986 30.8708 17.8432 29.9688 16.2568C29.0357 14.6704 27.8851 13.5198 26.2987 12.5867C24.7123 11.6533 23.1258 11.2489 21.2905 11.2489ZM58.4731 11.2489C56.6378 11.2489 55.0516 11.6536 53.4652 12.5867C51.8477 13.5198 50.7312 14.6704 49.8292 16.2568C48.8959 17.8432 48.4914 19.3986 48.4914 21.265C48.4914 23.1 48.8959 24.6209 49.8292 26.2385C50.7312 27.8249 51.8477 28.9755 53.4652 29.9089C55.0516 30.842 56.6378 31.2464 58.4731 31.2464C60.3084 31.2466 61.8946 30.842 63.4811 29.9089C65.0675 28.9755 66.2181 27.8249 67.1514 26.2385C68.0534 24.6212 68.4892 23.1 68.4892 21.265C68.4892 19.3986 68.0534 17.8432 67.1514 16.2568C66.2183 14.6704 65.0675 13.5198 63.4811 12.5867C61.8949 11.6533 60.3084 11.2489 58.4731 11.2489ZM95.7931 11.2489C93.9577 11.2489 92.4024 11.6536 90.7849 12.5867C89.1987 13.5198 88.0822 14.6704 87.1489 16.2568C86.2469 17.8432 85.8114 19.3986 85.8114 21.265C85.8114 23.1 86.2469 24.6209 87.1489 26.2385C88.082 27.8249 89.1984 28.9755 90.7849 29.9089C92.4024 30.842 93.9577 31.2464 95.7931 31.2464C97.6281 31.2466 99.2145 30.842 100.801 29.9089C102.387 28.9755 103.569 27.8249 104.471 26.2385C105.404 24.6212 105.809 23.1 105.809 21.265C105.809 19.3986 105.404 17.8432 104.471 16.2568C103.569 14.6704 102.387 13.5198 100.801 12.5867C99.2145 11.6533 97.6281 11.2489 95.7931 11.2489ZM133.421 11.2489C131.555 11.2489 130.031 11.6536 128.413 12.5867C126.827 13.5198 125.676 14.6704 124.743 16.2568C123.81 17.8432 123.405 19.3986 123.405 21.265C123.405 23.1 123.81 24.6209 124.743 26.2385C125.676 27.8249 126.827 28.9755 128.413 29.9089C130.031 30.842 131.586 31.2464 133.421 31.2464C135.288 31.2466 136.809 30.842 138.395 29.9089C140.013 28.9755 141.132 27.8249 142.065 26.2385C142.999 24.6212 143.403 23.1 143.403 21.265C143.403 19.3986 142.999 17.8432 142.065 16.2568C141.132 14.6704 140.013 13.5198 138.395 12.5867C136.809 11.6533 135.257 11.2489 133.421 11.2489ZM39.7105 16.4627C38.8401 16.4627 38.0863 16.6807 37.3093 17.1145C36.5323 17.5481 35.9951 18.0894 35.56 18.8638C35.0938 19.6072 34.9082 20.3663 34.9082 21.265C34.9082 22.1323 35.0936 22.8914 35.56 23.6659C35.9951 24.4095 36.532 24.9472 37.3093 25.381C38.0863 25.8148 38.8401 26.0328 39.7105 26.0328C40.5808 26.0328 41.2999 25.8148 42.0772 25.381C42.8231 24.9472 43.3945 24.4095 43.8609 23.6659C44.2959 22.8914 44.4783 22.1323 44.4783 21.265C44.4783 20.3663 44.2959 19.6072 43.8609 18.8638C43.3945 18.0891 42.8231 17.5481 42.0772 17.1145C41.3001 16.6807 40.5806 16.4627 39.7105 16.4627ZM76.893 16.4627C76.0199 16.4627 75.2715 16.6807 74.4919 17.1145C73.7124 17.5481 73.1792 18.0894 72.7426 18.8638C72.2747 19.6072 72.0908 20.3663 72.0908 21.265C72.0908 22.1323 72.2749 22.8914 72.7426 23.6659C73.1789 24.4095 73.7124 24.9472 74.4919 25.381C75.2715 25.8148 76.0199 26.0328 76.893 26.0328C77.7659 26.0328 78.5114 25.8148 79.2598 25.381C80.0391 24.9472 80.6069 24.4095 81.0435 23.6659C81.5112 22.8914 81.6609 22.1323 81.6609 21.265C81.6607 20.3663 81.5109 19.6072 81.0435 18.8638C80.6069 18.0891 80.0394 17.5481 79.2598 17.1145C78.5114 16.6807 77.7659 16.4627 76.893 16.4627ZM114.624 16.4627C113.754 16.4627 113 16.6807 112.223 17.1145C111.477 17.5481 110.909 18.0894 110.474 18.8638C110.039 19.6072 109.822 20.3663 109.822 21.265C109.822 22.1323 110.039 22.8914 110.474 23.6659C110.909 24.4095 111.477 24.9472 112.223 25.381C113 25.8148 113.754 26.0328 114.624 26.0328C115.526 26.0328 116.245 25.8148 116.991 25.381C117.768 24.9472 118.34 24.4095 118.775 23.6659C119.21 22.8914 119.392 22.1323 119.392 21.265C119.392 20.3663 119.21 19.6072 118.775 18.8638C118.34 18.0891 117.768 17.5481 116.991 17.1145C116.245 16.6807 115.526 16.4627 114.624 16.4627ZM21.1876 35.2598C20.3175 35.2598 19.5326 35.411 18.7867 35.8772C18.0097 36.3122 17.4725 36.8839 17.0371 37.6609C16.571 38.4068 16.3856 39.1606 16.3856 40.062C16.3856 40.9321 16.571 41.6518 17.0371 42.4288C17.4725 43.1747 18.0097 43.743 18.7867 44.1781C19.5326 44.6132 20.2864 44.8299 21.1876 44.8299C22.0579 44.8299 22.7773 44.6132 23.5546 44.1781C24.3005 43.743 24.8719 43.1747 25.3381 42.4288C25.7734 41.6518 25.9555 40.9321 25.9555 40.062C25.9557 39.1606 25.7734 38.4068 25.3381 37.6609C24.8719 36.8839 24.3005 36.3122 23.5546 35.8772C22.7773 35.411 22.0891 35.2598 21.1876 35.2598ZM59.3306 35.2598C58.4294 35.2598 57.6756 35.411 56.9297 35.8772C56.1524 36.3122 55.581 36.8839 55.146 37.6609C54.7109 38.4068 54.5286 39.1606 54.5286 40.062C54.5286 40.9321 54.7107 41.6518 55.146 42.4288C55.581 43.1747 56.1524 43.743 56.9297 44.1781C57.6756 44.6132 58.4294 44.8299 59.3306 44.8299C60.2009 44.8299 60.9203 44.6132 61.6976 44.1781C62.4435 43.743 63.0116 43.1747 63.4469 42.4288C63.882 41.6518 64.0984 40.9321 64.0984 40.062C64.0987 39.1606 63.882 38.4068 63.4469 37.6609C63.0116 36.8839 62.4435 36.3122 61.6976 35.8772C60.9205 35.411 60.2009 35.2598 59.3306 35.2598ZM96.1016 35.2598C95.2032 35.2598 94.4753 35.411 93.7005 35.8772C92.9569 36.3122 92.385 36.8839 91.9512 37.6609C91.5174 38.4068 91.2993 39.1606 91.2993 40.062C91.2993 40.9321 91.5174 41.6518 91.9512 42.4288C92.385 43.1747 92.9569 43.743 93.7005 44.1781C94.475 44.6132 95.2341 44.8299 96.1016 44.8299C97.0001 44.8299 97.7591 44.6132 98.5027 44.1781C99.2772 43.743 99.7841 43.1747 100.218 42.4288C100.651 41.6518 100.87 40.9321 100.87 40.062C100.87 39.1606 100.651 38.4068 100.218 37.6609C99.7841 36.8839 99.2772 36.3122 98.5027 35.8772C97.7591 35.411 96.9692 35.2598 96.1016 35.2598ZM133.421 35.2598C132.523 35.2598 131.795 35.411 131.02 35.8772C130.277 36.3122 129.705 36.8839 129.271 37.6609C128.837 38.4068 128.619 39.1606 128.619 40.062C128.619 40.9321 128.837 41.6518 129.271 42.4288C129.705 43.1747 130.277 43.743 131.02 44.1781C131.795 44.6132 132.554 44.8299 133.421 44.8299C134.32 44.8299 135.079 44.6132 135.822 44.1781C136.597 43.743 137.104 43.1747 137.538 42.4288C137.971 41.6518 138.189 40.9321 138.189 40.062C138.189 39.1606 137.971 38.4068 137.538 37.6609C137.104 36.8839 136.597 36.3122 135.822 35.8772C135.079 35.411 134.289 35.2598 133.421 35.2598ZM21.2905 48.5686C19.4552 48.5686 17.869 48.9718 16.2826 49.9064C14.6651 50.8099 13.5486 51.9567 12.6467 53.5767C11.7136 55.1654 11.3088 56.7466 11.3088 58.5847C11.3088 60.3916 11.7136 61.9695 12.6467 63.5584C13.5486 65.1471 14.6651 66.3251 16.2826 67.2286C17.869 68.1632 19.4552 68.5663 21.2905 68.5663C23.1258 68.5663 24.712 68.1632 26.2987 67.2286C27.8849 66.3251 29.0355 65.1471 29.9688 63.5584C30.8708 61.9695 31.3066 60.3916 31.3066 58.5847C31.3066 56.7466 30.8708 55.1654 29.9688 53.5767C29.0357 51.9567 27.8851 50.8099 26.2987 49.9064C24.7123 48.9718 23.1258 48.5686 21.2905 48.5686ZM58.4731 48.5686C56.6378 48.5686 55.0516 48.9718 53.4652 49.9064C51.8477 50.8099 50.7312 51.9567 49.8292 53.5767C48.8959 55.1654 48.4914 56.7466 48.4914 58.5847C48.4914 60.3916 48.8959 61.9695 49.8292 63.5584C50.7312 65.1471 51.8477 66.3251 53.4652 67.2286C55.0516 68.1632 56.6378 68.5663 58.4731 68.5663C60.3084 68.5663 61.8946 68.1632 63.4811 67.2286C65.0675 66.3251 66.2181 65.1471 67.1514 63.5584C68.0534 61.9695 68.4892 60.3916 68.4892 58.5847C68.4892 56.7466 68.0534 55.1654 67.1514 53.5767C66.2183 51.9567 65.0675 50.8099 63.4811 49.9064C61.8949 48.9718 60.3084 48.5686 58.4731 48.5686ZM95.7931 48.5686C93.9577 48.5686 92.4024 48.9718 90.7849 49.9064C89.1987 50.8099 88.0822 51.9567 87.1489 53.5767C86.2469 55.1654 85.8114 56.7466 85.8114 58.5847C85.8114 60.3916 86.2469 61.9695 87.1489 63.5584C88.082 65.1471 89.1984 66.3251 90.7849 67.2286C92.4024 68.1632 93.9577 68.5663 95.7931 68.5663C97.6281 68.5663 99.2145 68.1632 100.801 67.2286C102.387 66.3251 103.569 65.1471 104.471 63.5584C105.404 61.9695 105.809 60.3916 105.809 58.5847C105.809 56.7466 105.404 55.1654 104.471 53.5767C103.569 51.9567 102.387 50.8099 100.801 49.9064C99.2145 48.9718 97.6281 48.5686 95.7931 48.5686ZM133.421 48.5686C131.555 48.5686 130.031 48.9718 128.413 49.9064C126.827 50.8099 125.676 51.9567 124.743 53.5767C123.81 55.1654 123.405 56.7466 123.405 58.5847C123.405 60.3916 123.81 61.9695 124.743 63.5584C125.676 65.1471 126.827 66.3251 128.413 67.2286C130.031 68.1632 131.586 68.5663 133.421 68.5663C135.288 68.5663 136.809 68.1632 138.395 67.2286C140.013 66.3251 141.132 65.1471 142.065 63.5584C142.999 61.9695 143.403 60.3916 143.403 58.5847C143.403 56.7466 142.999 55.1654 142.065 53.5767C141.132 51.9567 140.013 50.8099 138.395 49.9064C136.809 48.9718 135.257 48.5686 133.421 48.5686ZM39.7105 52.9593C38.8401 52.9593 38.0863 53.1402 37.3093 53.5767C36.5323 54.0133 35.9951 54.5807 35.56 55.3602C35.0938 56.1087 34.9082 56.8571 34.9082 57.7613C34.9082 58.6345 35.0936 59.3799 35.56 60.1281C35.9951 60.9076 36.532 61.4411 37.3093 61.8776C38.0863 62.3142 38.8401 62.5292 39.7105 62.5292C40.5808 62.5292 41.2999 62.314 42.0772 61.8776C42.8231 61.4411 43.3945 60.9076 43.8609 60.1281C44.2959 59.3796 44.4783 58.6345 44.4783 57.7613C44.4783 56.8571 44.2959 56.1087 43.8609 55.3602C43.3945 54.5807 42.8231 54.0131 42.0772 53.5767C41.3001 53.1402 40.5806 52.9593 39.7105 52.9593ZM76.893 52.9593C76.0199 52.9593 75.2715 53.1402 74.4919 53.5767C73.7124 54.0133 73.1792 54.5807 72.7426 55.3602C72.2747 56.1087 72.0908 56.8571 72.0908 57.7613C72.0908 58.6345 72.2749 59.3799 72.7426 60.1281C73.1789 60.9076 73.7124 61.4411 74.4919 61.8776C75.2715 62.3142 76.0199 62.5292 76.893 62.5292C77.7659 62.5292 78.5114 62.314 79.2598 61.8776C80.0391 61.4411 80.6069 60.9076 81.0435 60.1281C81.5112 59.3796 81.6609 58.6345 81.6609 57.7613C81.6607 56.8571 81.5109 56.1087 81.0435 55.3602C80.6069 54.5807 80.0394 54.0131 79.2598 53.5767C78.5114 53.1402 77.7659 52.9593 76.893 52.9593ZM114.624 52.9593C113.754 52.9593 113 53.1402 112.223 53.5767C111.477 54.0133 110.909 54.5807 110.474 55.3602C110.039 56.1087 109.822 56.8571 109.822 57.7613C109.822 58.6345 110.039 59.3799 110.474 60.1281C110.909 60.9076 111.477 61.4411 112.223 61.8776C113 62.3142 113.754 62.5292 114.624 62.5292C115.526 62.5292 116.245 62.314 116.991 61.8776C117.768 61.4411 118.34 60.9076 118.775 60.1281C119.21 59.3796 119.392 58.6345 119.392 57.7613C119.392 56.8571 119.21 56.1087 118.775 55.3602C118.34 54.5807 117.768 54.0131 116.991 53.5767C116.245 53.1402 115.526 52.9593 114.624 52.9593ZM21.1876 72.4423C20.3175 72.4423 19.5326 72.6247 18.7867 73.0598C18.0097 73.4948 17.4725 74.0976 17.0371 74.8435C16.571 75.6205 16.3856 76.3743 16.3856 77.2446C16.3856 78.1458 16.571 78.8655 17.0371 79.6114C17.4725 80.3884 18.0097 80.9256 18.7867 81.3607C19.5326 81.7957 20.2864 82.0125 21.1876 82.0125C22.0579 82.0125 22.7773 81.7957 23.5546 81.3607C24.3005 80.9256 24.8719 80.3884 25.3381 79.6114C25.7734 78.8655 25.9555 78.1147 25.9555 77.2446C25.9557 76.3432 25.7734 75.6205 25.3381 74.8435C24.8719 74.0976 24.3005 73.4948 23.5546 73.0598C22.7773 72.6247 22.0891 72.4423 21.1876 72.4423ZM59.3306 72.4423C58.4294 72.4423 57.6756 72.6247 56.9297 73.0598C56.1524 73.4948 55.581 74.0976 55.146 74.8435C54.7109 75.6205 54.5286 76.3743 54.5286 77.2446C54.5286 78.1458 54.7107 78.8655 55.146 79.6114C55.581 80.3884 56.1524 80.9256 56.9297 81.3607C57.6756 81.7957 58.4294 82.0125 59.3306 82.0125C60.2009 82.0125 60.9203 81.7957 61.6976 81.3607C62.4435 80.9256 63.0116 80.3884 63.4469 79.6114C63.882 78.8655 64.0984 78.1147 64.0984 77.2446C64.0987 76.3432 63.882 75.6205 63.4469 74.8435C63.0116 74.0976 62.4435 73.4948 61.6976 73.0598C60.9205 72.6247 60.2009 72.4423 59.3306 72.4423ZM96.1016 72.4423C95.2032 72.4423 94.4753 72.6247 93.7005 73.0598C92.9569 73.4948 92.385 74.0976 91.9512 74.8435C91.5174 75.6205 91.2993 76.3743 91.2993 77.2446C91.2993 78.1458 91.5174 78.8655 91.9512 79.6114C92.385 80.3884 92.9569 80.9256 93.7005 81.3607C94.475 81.7957 95.2341 82.0125 96.1016 82.0125C97.0001 82.0125 97.7591 81.7957 98.5027 81.3607C99.2772 80.9256 99.7841 80.3884 100.218 79.6114C100.651 78.8655 100.87 78.1147 100.87 77.2446C100.87 76.3432 100.651 75.6205 100.218 74.8435C99.7841 74.0976 99.2772 73.4948 98.5027 73.0598C97.7591 72.6247 96.9692 72.4423 96.1016 72.4423ZM133.421 72.4423C132.523 72.4423 131.795 72.6247 131.02 73.0598C130.277 73.4948 129.705 74.0976 129.271 74.8435C128.837 75.6205 128.619 76.3743 128.619 77.2446C128.619 78.1458 128.837 78.8655 129.271 79.6114C129.705 80.3884 130.277 80.9256 131.02 81.3607C131.795 81.7957 132.554 82.0125 133.421 82.0125C134.32 82.0125 135.079 81.7957 135.822 81.3607C136.597 80.9256 137.104 80.3884 137.538 79.6114C137.971 78.8655 138.189 78.1147 138.189 77.2446C138.189 76.3432 137.971 75.6205 137.538 74.8435C137.104 74.0976 136.597 73.4948 135.822 73.0598C135.079 72.6247 134.289 72.4423 133.421 72.4423ZM21.2905 85.7512C19.4552 85.7512 17.869 86.187 16.2826 87.089C14.6651 88.022 13.5486 89.1385 12.6467 90.7249C11.7136 92.3425 11.3088 93.8978 11.3088 95.7328C11.3088 97.5682 11.7136 99.1546 12.6467 100.741C13.5486 102.327 14.6651 103.509 16.2826 104.411C17.869 105.344 19.4552 105.749 21.2905 105.749C23.1258 105.749 24.712 105.344 26.2987 104.411C27.8849 103.509 29.0355 102.327 29.9688 100.741C30.8708 99.1546 31.3066 97.5682 31.3066 95.7328C31.3066 93.8978 30.8708 92.3425 29.9688 90.7249C29.0357 89.1385 27.8851 88.022 26.2987 87.089C24.7123 86.187 23.1258 85.7512 21.2905 85.7512ZM58.4731 85.7512C56.6378 85.7512 55.0516 86.187 53.4652 87.089C51.8477 88.022 50.7312 89.1385 49.8292 90.7249C48.8959 92.3425 48.4914 93.8978 48.4914 95.7328C48.4914 97.5682 48.8959 99.1546 49.8292 100.741C50.7312 102.327 51.8477 103.509 53.4652 104.411C55.0516 105.344 56.6378 105.749 58.4731 105.749C60.3084 105.749 61.8946 105.344 63.4811 104.411C65.0675 103.509 66.2181 102.327 67.1514 100.741C68.0534 99.1546 68.4892 97.5682 68.4892 95.7328C68.4892 93.8978 68.0534 92.3425 67.1514 90.7249C66.2183 89.1385 65.0675 88.022 63.4811 87.089C61.8949 86.187 60.3084 85.7512 58.4731 85.7512ZM95.7931 85.7512C93.9577 85.7512 92.4024 86.187 90.7849 87.089C89.1987 88.022 88.0822 89.1385 87.1489 90.7249C86.2469 92.3425 85.8114 93.8978 85.8114 95.7328C85.8114 97.5682 86.2469 99.1546 87.1489 100.741C88.082 102.327 89.1984 103.509 90.7849 104.411C92.4024 105.344 93.9577 105.749 95.7931 105.749C97.6281 105.749 99.2145 105.344 100.801 104.411C102.387 103.509 103.569 102.327 104.471 100.741C105.404 99.1546 105.809 97.5682 105.809 95.7328C105.809 93.8978 105.404 92.3425 104.471 90.7249C103.569 89.1385 102.387 88.022 100.801 87.089C99.2145 86.187 97.6281 85.7512 95.7931 85.7512ZM133.421 85.7512C131.555 85.7512 130.031 86.187 128.413 87.089C126.827 88.022 125.676 89.1385 124.743 90.7249C123.81 92.3425 123.405 93.8978 123.405 95.7328C123.405 97.5682 123.81 99.1546 124.743 100.741C125.676 102.327 126.827 103.509 128.413 104.411C130.031 105.344 131.586 105.749 133.421 105.749C135.288 105.749 136.809 105.344 138.395 104.411C140.013 103.509 141.132 102.327 142.065 100.741C142.999 99.1546 143.403 97.5682 143.403 95.7328C143.403 93.8978 142.999 92.3425 142.065 90.7249C141.132 89.1385 140.013 88.022 138.395 87.089C136.809 86.187 135.257 85.7512 133.421 85.7512ZM39.7105 90.1419C38.8401 90.1417 38.0863 90.3597 37.3093 90.7935C36.5323 91.2273 35.9951 91.7994 35.56 92.5428C35.0938 93.3175 34.9082 94.0764 34.9082 94.9439C34.9082 95.8424 35.0936 96.6014 35.56 97.3451C35.9951 98.1196 36.532 98.6265 37.3093 99.0602C38.0863 99.4938 38.8401 99.7118 39.7105 99.7118C40.5808 99.7118 41.2999 99.4938 42.0772 99.0602C42.8231 98.6265 43.3945 98.1196 43.8609 97.3451C44.2959 96.6014 44.4783 95.8115 44.4783 94.9439C44.4783 94.0455 44.2959 93.3175 43.8609 92.5428C43.3945 91.7994 42.8231 91.2273 42.0772 90.7935C41.3001 90.3597 40.5806 90.1419 39.7105 90.1419ZM76.893 90.1419C76.0199 90.1417 75.2715 90.3597 74.4919 90.7935C73.7124 91.2273 73.1792 91.7994 72.7426 92.5428C72.2747 93.3175 72.0908 94.0764 72.0908 94.9439C72.0908 95.8424 72.2749 96.6014 72.7426 97.3451C73.1789 98.1196 73.7124 98.6265 74.4919 99.0602C75.2715 99.4938 76.0199 99.7118 76.893 99.7118C77.7659 99.7118 78.5114 99.4938 79.2598 99.0602C80.0391 98.6265 80.6069 98.1196 81.0435 97.3451C81.5112 96.6014 81.6609 95.8115 81.6609 94.9439C81.6607 94.0455 81.5109 93.3175 81.0435 92.5428C80.6069 91.7994 80.0394 91.2273 79.2598 90.7935C78.5114 90.3597 77.7659 90.1419 76.893 90.1419ZM114.624 90.1419C113.754 90.1417 113 90.3597 112.223 90.7935C111.477 91.2273 110.909 91.7994 110.474 92.5428C110.039 93.3175 109.822 94.0764 109.822 94.9439C109.822 95.8424 110.039 96.6014 110.474 97.3451C110.909 98.1196 111.477 98.6265 112.223 99.0602C113 99.4938 113.754 99.7118 114.624 99.7118C115.526 99.7118 116.245 99.4938 116.991 99.0602C117.768 98.6265 118.34 98.1196 118.775 97.3451C119.21 96.6014 119.392 95.8115 119.392 94.9439C119.392 94.0455 119.21 93.3175 118.775 92.5428C118.34 91.7994 117.768 91.2273 116.991 90.7935C116.245 90.3597 115.526 90.1419 114.624 90.1419Z" fill="#ACACAC" stroke="black" stroke-width="6.1267" mask="url(#path-2-inside-1_5_46)"/>
</svg>
