<svg width="122" height="151" viewBox="0 0 122 151" fill="none" xmlns="http://www.w3.org/2000/svg">
<path fill-rule="evenodd" clip-rule="evenodd" d="M20.3126 0V6.1398H25.6979V5.28235H26.5898V0H20.3126ZM33.3472 0V5.31675H40.173V0H33.3472ZM46.9991 0V5.31675H53.8593V0H46.9991ZM60.7196 0V5.31675H67.6143V0H60.7196ZM74.3714 0V5.31675H81.2661V0H74.3714ZM88.1262 0V5.31675H94.9866V0H88.1262ZM101.812 0V5.31675H108.638V0H101.812ZM115.533 0V5.28235H116.459V6.1398H121.81V0H115.533ZM20.3126 10.0158V13.8233H22.9882H25.6293V10.0158H20.3126ZM116.356 13.3088V20.2719H121.673V13.3088H116.356ZM20.3126 17.5622V18.3855H19.3522V23.702H20.3126V23.8394H26.5898V18.4541H25.6979V17.5622H20.3126ZM0.966675 18.3855V24.6627H6.35199V23.7708H7.24378V18.3855H0.966675ZM11.2572 18.3855V23.702H13.2124H15.2018V18.3855H11.2572ZM34.1703 18.3855V23.702H41.9225V18.3855H34.1703ZM49.7088 18.3855V23.702H57.4611V18.3855H49.7088ZM65.1787 18.3855V23.702H72.9651V18.3855H65.1787ZM80.7171 18.3855V23.702H88.4693V18.3855H80.7171ZM96.3244 18.3855V23.7708H97.1819V24.6627H102.464V18.3855H96.3244ZM116.356 27.338V34.3699H121.673V27.338H116.356ZM97.1475 31.4199V38.1774H102.464V31.4199H97.1475ZM0.966675 31.6944V38.7604H6.28341V31.6944H0.966675ZM116.356 41.4701V48.4332H121.673V41.4701H116.356ZM97.1475 44.9346V51.6918H102.464V44.9346H97.1475ZM0.966675 45.7235V52.7896H6.28341V45.7235H0.966675ZM116.356 55.4652V62.5312H121.673V55.4652H116.356ZM97.1475 58.3808V65.138H102.464V58.3808H97.1475ZM0.966675 59.8557V66.9217H6.28341V59.8557H0.966675ZM116.356 69.4944V76.526H121.673V69.4944H116.356ZM97.1475 71.8955V78.5842H102.464V71.8955H97.1475ZM0.966675 73.8848V80.9168H6.28341V73.8848H0.966675ZM116.356 83.5921V90.6581H121.673V83.5921H116.356ZM97.1475 85.3414V92.0989H102.464V85.3414H97.1475ZM0.966675 87.9484V95.0145H6.28341V87.9484H0.966675ZM116.356 97.6213V104.687H121.673V97.6213H116.356ZM97.1475 98.7876V105.545H102.464V98.7876H97.1475ZM0.966675 101.978V109.044H6.28341V101.978H0.966675ZM116.356 111.719V118.785H121.673V111.719H116.356ZM97.1475 112.302V119.06H102.464V112.302H97.1475ZM0.966675 116.11V123.141H6.28341V116.11H0.966675ZM97.1475 125.817V132.094V132.917H102.464V132.094H103.425V126.709H102.533V125.817H97.1475ZM116.39 126.366V126.64H116.082V131.957H121.673V126.366H116.39ZM107.438 126.64V131.957H109.496H111.52V126.64H107.438ZM0.966675 130.139V137.171H6.28341V130.139H0.966675ZM97.1475 136.656V140.464H99.823H102.464V136.656H97.1475ZM0.966675 144.202V150.342H7.24378V145.06H6.35199V144.202H0.966675ZM97.1819 144.202V145.06H96.3244V150.342H102.464V144.202H97.1819ZM14.1384 145.026V150.342H21.033V145.026H14.1384ZM27.8246 145.026V150.342H34.6851V145.026H27.8246ZM41.5793 145.026V150.342H48.4398V145.026H41.5793ZM55.2655 145.026V150.342H62.1601V145.026H55.2655ZM68.9176 145.026V150.342H75.8122V145.026H68.9176ZM82.7068 145.026V150.342H89.567V145.026H82.7068Z" fill="black"/>
</svg>
