<svg width="118" height="119" viewBox="0 0 118 119" fill="none" xmlns="http://www.w3.org/2000/svg">
<path fill-rule="evenodd" clip-rule="evenodd" d="M58.7238 0.882812C26.3191 0.882812 0 27.1592 0 59.5036C0 91.8792 26.3191 118.159 58.7238 118.159C91.1284 118.097 117.351 91.8792 117.413 59.5036C117.413 27.1592 91.1285 0.882812 58.7238 0.882812ZM58.7238 9.76675C86.2102 9.82897 108.467 32.0731 108.529 59.5036C108.529 86.9653 86.2102 109.275 58.7238 109.275C31.2063 109.275 8.88402 86.9651 8.88402 59.5036C8.88402 32.0731 31.2062 9.76675 58.7238 9.76675Z" fill="black"/>
<path d="M44.2196 34.3516L44.2196 34.3516L44.2257 34.348C48.9729 31.5889 53.6099 30.3364 59.0974 30.3364C64.585 30.3364 69.222 31.5887 73.9691 34.348L73.9753 34.3516C78.7197 37.0797 82.0733 40.432 84.8341 45.2111C87.5652 49.9612 88.8142 54.5974 88.8142 60.0532C88.8142 65.5408 87.5649 70.1794 84.835 74.9282C82.0693 79.6854 78.7117 83.1001 73.9754 85.8233L73.9691 85.827C69.2277 88.583 64.5916 89.8044 59.0974 89.8044C53.6033 89.8044 48.9672 88.583 44.2258 85.8269L44.2195 85.8233C39.4739 83.0948 36.056 79.6768 33.3273 74.9311L33.3237 74.9249C30.5677 70.1835 29.3464 65.5475 29.3464 60.0532C29.3464 54.5913 30.5672 49.9582 33.3237 45.2159L33.3237 45.2159L33.3293 45.2061C36.0532 40.4394 39.4665 37.0847 44.2196 34.3516ZM90.1282 26.4036C90.1282 19.9313 95.3875 14.695 101.905 14.695C108.361 14.695 113.648 19.9308 113.648 26.4036C113.648 32.876 108.423 38.0781 101.905 38.0781C95.3823 38.0781 90.1282 32.8708 90.1282 26.4036Z" fill="#ACACAC" stroke="black" stroke-width="3.06335"/>
</svg>
