<svg width="162" height="48" viewBox="0 0 162 48" fill="none" xmlns="http://www.w3.org/2000/svg">
<path d="M9.81474 21.4167V19.8584V15.2658C9.81474 14.4457 8.83961 14.3637 8.57958 14.6917L0.908539 24.3691C0.137437 25.1892 0.465481 26.5833 2.02369 26.5833H9.81474V21.4167Z" fill="#29BC9B"/>
<path d="M9.81441 26.5833V28.1416V32.7342C9.81441 33.5543 10.7895 33.6363 11.0496 33.3083L18.7206 23.6309C19.4917 22.8108 19.1637 21.4166 17.6055 21.4166H9.81441V26.5833Z" fill="url(#paint0_linear_13_54)"/>
<path d="M34.1621 20.282C35.2774 20.282 36.1741 20.6264 36.852 21.3153C37.5409 21.9933 37.8854 22.9446 37.8854 24.1693V29.5H35.5891V24.4809C35.5891 23.7702 35.4087 23.2289 35.0478 22.8571C34.687 22.4744 34.1949 22.283 33.5716 22.283C32.9483 22.283 32.4508 22.4744 32.079 22.8571C31.7182 23.2289 31.5377 23.7702 31.5377 24.4809V29.5H29.2414V24.4809C29.2414 23.7702 29.061 23.2289 28.7001 22.8571C28.3393 22.4744 27.8472 22.283 27.2239 22.283C26.5897 22.283 26.0867 22.4744 25.7149 22.8571C25.3541 23.2289 25.1737 23.7702 25.1737 24.4809V29.5H22.8774V20.4132H25.1737V21.5121C25.4689 21.1294 25.8462 20.8287 26.3054 20.61C26.7756 20.3913 27.2896 20.282 27.8472 20.282C28.558 20.282 29.1922 20.435 29.7499 20.7412C30.3076 21.0365 30.7395 21.4629 31.0457 22.0206C31.3409 21.4957 31.7674 21.0747 32.325 20.7576C32.8936 20.4405 33.506 20.282 34.1621 20.282ZM48.7576 20.4132L43.1317 33.7974H40.6877L42.656 29.2704L39.0147 20.4132H41.5899L43.9354 26.7608L46.3137 20.4132H48.7576ZM57.3811 29.6476C56.6375 29.6476 55.9705 29.5164 55.38 29.254C54.7895 28.9806 54.3193 28.6143 53.9694 28.155C53.6304 27.6958 53.4446 27.1873 53.4118 26.6296H55.7245C55.7682 26.9795 55.9377 27.2693 56.2329 27.4989C56.5391 27.7286 56.9164 27.8434 57.3647 27.8434C57.8021 27.8434 58.1411 27.7559 58.3816 27.5809C58.6331 27.406 58.7589 27.1818 58.7589 26.9084C58.7589 26.6132 58.6058 26.3945 58.2996 26.2524C58.0044 26.0993 57.5287 25.9353 56.8726 25.7603C56.1947 25.5963 55.637 25.4268 55.1996 25.2518C54.7731 25.0769 54.4014 24.809 54.0842 24.4481C53.7781 24.0873 53.625 23.6007 53.625 22.9883C53.625 22.4853 53.7671 22.0261 54.0514 21.6105C54.3467 21.195 54.7622 20.867 55.298 20.6264C55.8447 20.3858 56.4844 20.2656 57.2171 20.2656C58.2996 20.2656 59.1635 20.5389 59.8086 21.0857C60.4538 21.6215 60.8092 22.3486 60.8748 23.2672H58.6769C58.6441 22.9063 58.491 22.622 58.2176 22.4142C57.9552 22.1955 57.5998 22.0862 57.1515 22.0862C56.7359 22.0862 56.4134 22.1627 56.1837 22.3158C55.965 22.4689 55.8557 22.6821 55.8557 22.9555C55.8557 23.2617 56.0088 23.4968 56.3149 23.6608C56.6211 23.8139 57.0968 23.9725 57.7419 24.1365C58.398 24.3005 58.9393 24.47 59.3658 24.6449C59.7922 24.8199 60.1585 25.0933 60.4647 25.4651C60.7818 25.8259 60.9458 26.307 60.9568 26.9084C60.9568 27.4333 60.8092 27.9035 60.5139 28.319C60.2296 28.7346 59.8141 29.0626 59.2673 29.3032C58.7315 29.5328 58.1028 29.6476 57.3811 29.6476ZM65.5153 22.2994V26.6952C65.5153 27.0014 65.5864 27.2256 65.7285 27.3677C65.8816 27.4989 66.1331 27.5645 66.483 27.5645H67.5492V29.5H66.1058C64.1703 29.5 63.2026 28.5596 63.2026 26.6788V22.2994H62.1201V20.4132H63.2026V18.1661H65.5153V20.4132H67.5492V22.2994H65.5153ZM73.2358 29.6476C72.361 29.6476 71.5737 29.4563 70.8738 29.0735C70.174 28.6799 69.6218 28.1277 69.2172 27.4169C68.8236 26.7062 68.6267 25.886 68.6267 24.9566C68.6267 24.0271 68.829 23.207 69.2336 22.4963C69.6491 21.7855 70.2123 21.2387 70.923 20.856C71.6338 20.4624 72.4266 20.2656 73.3014 20.2656C74.1762 20.2656 74.9689 20.4624 75.6797 20.856C76.3904 21.2387 76.9481 21.7855 77.3527 22.4963C77.7682 23.207 77.976 24.0271 77.976 24.9566C77.976 25.886 77.7628 26.7062 77.3363 27.4169C76.9208 28.1277 76.3522 28.6799 75.6305 29.0735C74.9197 29.4563 74.1215 29.6476 73.2358 29.6476ZM73.2358 27.6465C73.6513 27.6465 74.0395 27.5481 74.4003 27.3513C74.7721 27.1435 75.0673 26.8374 75.286 26.4328C75.5047 26.0282 75.6141 25.5361 75.6141 24.9566C75.6141 24.0927 75.3844 23.4312 74.9252 22.9719C74.4769 22.5017 73.9246 22.2666 73.2686 22.2666C72.6125 22.2666 72.0603 22.5017 71.6119 22.9719C71.1745 23.4312 70.9558 24.0927 70.9558 24.9566C70.9558 25.8204 71.1691 26.4875 71.5955 26.9577C72.0329 27.4169 72.5797 27.6465 73.2358 27.6465ZM81.9567 21.8238C82.252 21.3426 82.6347 20.9654 83.1049 20.692C83.586 20.4186 84.1328 20.282 84.7451 20.282V22.6931H84.1382C83.4165 22.6931 82.8698 22.8626 82.498 23.2015C82.1372 23.5405 81.9567 24.131 81.9567 24.973V29.5H79.6604V20.4132H81.9567V21.8238ZM94.985 20.4132L89.359 33.7974H86.9151L88.8833 29.2704L85.2421 20.4132H87.8172L90.1627 26.7608L92.541 20.4132H94.985ZM98.5191 21.7418C98.8144 21.3044 99.219 20.949 99.7329 20.6756C100.258 20.4022 100.854 20.2656 101.521 20.2656C102.297 20.2656 102.997 20.4569 103.62 20.8396C104.254 21.2223 104.752 21.7691 105.113 22.4799C105.485 23.1797 105.671 23.9943 105.671 24.9238C105.671 25.8532 105.485 26.6788 105.113 27.4005C104.752 28.1113 104.254 28.6635 103.62 29.0571C102.997 29.4508 102.297 29.6476 101.521 29.6476C100.843 29.6476 100.247 29.5164 99.7329 29.254C99.2299 28.9806 98.8253 28.6307 98.5191 28.2042V29.5H96.2228V17.3624H98.5191V21.7418ZM103.325 24.9238C103.325 24.377 103.21 23.9068 102.981 23.5132C102.762 23.1086 102.467 22.8024 102.095 22.5947C101.734 22.3869 101.34 22.283 100.914 22.283C100.498 22.283 100.105 22.3924 99.7329 22.6111C99.3721 22.8188 99.0768 23.125 98.8472 23.5296C98.6285 23.9342 98.5191 24.4098 98.5191 24.9566C98.5191 25.5033 98.6285 25.979 98.8472 26.3836C99.0768 26.7882 99.3721 27.0998 99.7329 27.3185C100.105 27.5263 100.498 27.6301 100.914 27.6301C101.34 27.6301 101.734 27.5208 102.095 27.3021C102.467 27.0834 102.762 26.7718 102.981 26.3672C103.21 25.9626 103.325 25.4815 103.325 24.9238ZM111.374 29.6476C110.499 29.6476 109.712 29.4563 109.012 29.0735C108.312 28.6799 107.76 28.1277 107.356 27.4169C106.962 26.7062 106.765 25.886 106.765 24.9566C106.765 24.0271 106.967 23.207 107.372 22.4963C107.788 21.7855 108.351 21.2387 109.061 20.856C109.772 20.4624 110.565 20.2656 111.44 20.2656C112.315 20.2656 113.107 20.4624 113.818 20.856C114.529 21.2387 115.086 21.7855 115.491 22.4963C115.907 23.207 116.114 24.0271 116.114 24.9566C116.114 25.886 115.901 26.7062 115.475 27.4169C115.059 28.1277 114.491 28.6799 113.769 29.0735C113.058 29.4563 112.26 29.6476 111.374 29.6476ZM111.374 27.6465C111.79 27.6465 112.178 27.5481 112.539 27.3513C112.91 27.1435 113.206 26.8374 113.424 26.4328C113.643 26.0282 113.752 25.5361 113.752 24.9566C113.752 24.0927 113.523 23.4312 113.064 22.9719C112.615 22.5017 112.063 22.2666 111.407 22.2666C110.751 22.2666 110.199 22.5017 109.75 22.9719C109.313 23.4312 109.094 24.0927 109.094 24.9566C109.094 25.8204 109.307 26.4875 109.734 26.9577C110.171 27.4169 110.718 27.6465 111.374 27.6465ZM121.834 29.6476C120.959 29.6476 120.172 29.4563 119.472 29.0735C118.772 28.6799 118.22 28.1277 117.815 27.4169C117.422 26.7062 117.225 25.886 117.225 24.9566C117.225 24.0271 117.427 23.207 117.832 22.4963C118.247 21.7855 118.81 21.2387 119.521 20.856C120.232 20.4624 121.025 20.2656 121.899 20.2656C122.774 20.2656 123.567 20.4624 124.278 20.856C124.988 21.2387 125.546 21.7855 125.951 22.4963C126.366 23.207 126.574 24.0271 126.574 24.9566C126.574 25.886 126.361 26.7062 125.934 27.4169C125.519 28.1277 124.95 28.6799 124.228 29.0735C123.518 29.4563 122.719 29.6476 121.834 29.6476ZM121.834 27.6465C122.249 27.6465 122.637 27.5481 122.998 27.3513C123.37 27.1435 123.665 26.8374 123.884 26.4328C124.103 26.0282 124.212 25.5361 124.212 24.9566C124.212 24.0927 123.982 23.4312 123.523 22.9719C123.075 22.5017 122.523 22.2666 121.867 22.2666C121.21 22.2666 120.658 22.5017 120.21 22.9719C119.773 23.4312 119.554 24.0927 119.554 24.9566C119.554 25.8204 119.767 26.4875 120.194 26.9577C120.631 27.4169 121.178 27.6465 121.834 27.6465ZM133.638 29.5L130.555 25.6291V29.5H128.258V17.3624H130.555V24.2677L133.606 20.4132H136.591L132.589 24.973L136.624 29.5H133.638Z" fill="#29BC9B"/>
<path d="M36.852 21.3153L36.3844 21.7756L36.3919 21.7829L36.852 21.3153ZM37.8854 29.5V30.1561H38.5415V29.5H37.8854ZM35.5891 29.5H34.933V30.1561H35.5891V29.5ZM35.0478 22.8571L34.5704 23.3072L34.577 23.3141L35.0478 22.8571ZM32.079 22.8571L31.6084 22.3999L31.6082 22.4002L32.079 22.8571ZM31.5377 29.5V30.1561H32.1938V29.5H31.5377ZM29.2414 29.5H28.5853V30.1561H29.2414V29.5ZM28.7001 22.8571L28.2227 23.3072L28.2293 23.3141L28.7001 22.8571ZM25.7149 22.8571L25.2443 22.3999L25.2441 22.4002L25.7149 22.8571ZM25.1737 29.5V30.1561H25.8298V29.5H25.1737ZM22.8774 29.5H22.2213V30.1561H22.8774V29.5ZM22.8774 20.4132V19.7571H22.2213V20.4132H22.8774ZM25.1737 20.4132H25.8298V19.7571H25.1737V20.4132ZM25.1737 21.5121H24.5176V23.4367L25.6931 21.9129L25.1737 21.5121ZM26.3054 20.61L26.0287 20.0151L26.0233 20.0176L26.3054 20.61ZM29.7499 20.7412L29.4341 21.3164L29.4429 21.3211L29.7499 20.7412ZM31.0457 22.0206L30.4706 22.3363L31.0387 23.3712L31.6175 22.3422L31.0457 22.0206ZM32.325 20.7576L32.0055 20.1846L32.0007 20.1873L32.325 20.7576ZM34.1621 20.938C35.131 20.938 35.849 21.2314 36.3844 21.7755L37.3197 20.8551C36.4992 20.0214 35.4239 19.6259 34.1621 19.6259V20.938ZM36.3919 21.7829C36.9241 22.3067 37.2293 23.0709 37.2293 24.1693H38.5415C38.5415 22.8183 38.1578 21.6798 37.3122 20.8477L36.3919 21.7829ZM37.2293 24.1693V29.5H38.5415V24.1693H37.2293ZM37.8854 28.8439H35.5891V30.1561H37.8854V28.8439ZM36.2452 29.5V24.4809H34.933V29.5H36.2452ZM36.2452 24.4809C36.2452 23.6641 36.0367 22.934 35.5186 22.4002L34.577 23.3141C34.7806 23.5238 34.933 23.8762 34.933 24.4809H36.2452ZM35.5252 22.407C35.0175 21.8686 34.3393 21.6269 33.5716 21.6269V22.9391C34.0504 22.9391 34.3564 23.0802 34.5704 23.3072L35.5252 22.407ZM33.5716 21.6269C32.8033 21.6269 32.1246 21.8686 31.6084 22.3999L32.5496 23.3143C32.777 23.0802 33.0933 22.9391 33.5716 22.9391V21.6269ZM31.6082 22.4002C31.0901 22.934 30.8816 23.6641 30.8816 24.4809H32.1938C32.1938 23.8762 32.3462 23.5238 32.5498 23.3141L31.6082 22.4002ZM30.8816 24.4809V29.5H32.1938V24.4809H30.8816ZM31.5377 28.8439H29.2414V30.1561H31.5377V28.8439ZM29.8975 29.5V24.4809H28.5853V29.5H29.8975ZM29.8975 24.4809C29.8975 23.6641 29.6891 22.934 29.1709 22.4002L28.2293 23.3141C28.4329 23.5238 28.5853 23.8762 28.5853 24.4809H29.8975ZM29.1775 22.407C28.6698 21.8686 27.9917 21.6269 27.2239 21.6269V22.9391C27.7028 22.9391 28.0087 23.0802 28.2228 23.3072L29.1775 22.407ZM27.2239 21.6269C26.4485 21.6269 25.7627 21.8663 25.2443 22.3999L26.1855 23.3143C26.4107 23.0824 26.731 22.9391 27.2239 22.9391V21.6269ZM25.2441 22.4002C24.726 22.934 24.5176 23.6641 24.5176 24.4809H25.8298C25.8298 23.8762 25.9822 23.5238 26.1857 23.3141L25.2441 22.4002ZM24.5176 24.4809V29.5H25.8298V24.4809H24.5176ZM25.1737 28.8439H22.8774V30.1561H25.1737V28.8439ZM23.5334 29.5V20.4132H22.2213V29.5H23.5334ZM22.8774 21.0693H25.1737V19.7571H22.8774V21.0693ZM24.5176 20.4132V21.5121H25.8298V20.4132H24.5176ZM25.6931 21.9129C25.9221 21.6161 26.2163 21.3791 26.5875 21.2024L26.0233 20.0176C25.476 20.2783 25.0157 20.6427 24.6542 21.1114L25.6931 21.9129ZM26.5821 21.2049C26.9592 21.0295 27.3778 20.938 27.8472 20.938V19.6259C27.2013 19.6259 26.592 19.7531 26.0287 20.0151L26.5821 21.2049ZM27.8472 20.938C28.4608 20.938 28.9842 21.0693 29.4341 21.3163L30.0656 20.1661C29.4003 19.8008 28.6552 19.6259 27.8472 19.6259V20.938ZM29.4429 21.3211C29.8863 21.5558 30.2255 21.89 30.4706 22.3363L31.6208 21.7048C31.2535 21.0358 30.7288 20.5171 30.0569 20.1614L29.4429 21.3211ZM31.6175 22.3422C31.8505 21.928 32.1882 21.5902 32.6493 21.3279L32.0007 20.1873C31.3465 20.5593 30.8313 21.0634 30.4738 21.6989L31.6175 22.3422ZM32.6446 21.3306C33.1147 21.0684 33.617 20.938 34.1621 20.938V19.6259C33.395 19.6259 32.6726 19.8126 32.0055 20.1846L32.6446 21.3306ZM48.7576 20.4132L49.3625 20.6674L49.7451 19.7571H48.7576V20.4132ZM43.1317 33.7974V34.4535H43.5676L43.7365 34.0516L43.1317 33.7974ZM40.6877 33.7974L40.0861 33.5358L39.6871 34.4535H40.6877V33.7974ZM42.656 29.2704L43.2577 29.532L43.3683 29.2775L43.2628 29.0209L42.656 29.2704ZM39.0147 20.4132V19.7571H38.0356L38.4079 20.6626L39.0147 20.4132ZM41.5899 20.4132L42.2053 20.1858L42.0469 19.7571H41.5899V20.4132ZM43.9354 26.7608L43.32 26.9882L43.9311 28.6422L44.5498 26.991L43.9354 26.7608ZM46.3137 20.4132V19.7571H45.8589L45.6993 20.183L46.3137 20.4132ZM48.1528 20.1589L42.5268 33.5431L43.7365 34.0516L49.3625 20.6674L48.1528 20.1589ZM43.1317 33.1413H40.6877V34.4535H43.1317V33.1413ZM41.2894 34.059L43.2577 29.532L42.0543 29.0088L40.0861 33.5358L41.2894 34.059ZM43.2628 29.0209L39.6215 20.1637L38.4079 20.6626L42.0492 29.5198L43.2628 29.0209ZM39.0147 21.0693H41.5899V19.7571H39.0147V21.0693ZM40.9744 20.6406L43.32 26.9882L44.5508 26.5334L42.2053 20.1858L40.9744 20.6406ZM44.5498 26.991L46.9281 20.6434L45.6993 20.183L43.321 26.5306L44.5498 26.991ZM46.3137 21.0693H48.7576V19.7571H46.3137V21.0693ZM55.38 29.254L55.1043 29.8494L55.1136 29.8535L55.38 29.254ZM53.9694 28.155L53.4415 28.5447L53.4476 28.5526L53.9694 28.155ZM53.4118 26.6296V25.9735H52.7159L52.7568 26.6681L53.4118 26.6296ZM55.7245 26.6296L56.3755 26.5482L56.3036 25.9735H55.7245V26.6296ZM56.2329 27.4989L55.8301 28.0169L55.8393 28.0238L56.2329 27.4989ZM58.3816 27.5809L58.0069 27.0422L57.9957 27.0503L58.3816 27.5809ZM58.2996 26.2524L57.9976 26.8348L58.0103 26.8414L58.0233 26.8474L58.2996 26.2524ZM56.8726 25.7603L57.0417 25.1264L57.0343 25.1244L57.0269 25.1226L56.8726 25.7603ZM55.1996 25.2518L54.9506 25.8588L54.9559 25.861L55.1996 25.2518ZM54.0842 24.4481L53.5839 24.8727L53.5914 24.8812L54.0842 24.4481ZM54.0514 21.6105L53.5165 21.2305L53.51 21.2401L54.0514 21.6105ZM55.298 20.6264L55.0338 20.0259L55.0293 20.0279L55.298 20.6264ZM59.8086 21.0857L59.3844 21.5862L59.3894 21.5904L59.8086 21.0857ZM60.8748 23.2672V23.9232H61.5794L61.5292 23.2204L60.8748 23.2672ZM58.6769 23.2672L58.0235 23.3266L58.0777 23.9232H58.6769V23.2672ZM58.2176 22.4142L57.7976 22.9183L57.8089 22.9277L57.8206 22.9366L58.2176 22.4142ZM56.1837 22.3158L55.8198 21.7699L55.8136 21.7741L55.8075 21.7783L56.1837 22.3158ZM56.3149 23.6608L56.0051 24.2391L56.0133 24.2435L56.0215 24.2476L56.3149 23.6608ZM57.7419 24.1365L57.5803 24.7723L57.5828 24.773L57.7419 24.1365ZM60.4647 25.4651L59.9583 25.8821L59.9649 25.8903L59.9719 25.8981L60.4647 25.4651ZM60.9568 26.9084L61.613 26.9084L61.6128 26.8965L60.9568 26.9084ZM60.5139 28.319L59.979 27.939L59.9724 27.9486L60.5139 28.319ZM59.2673 29.3032L59.5258 29.9062L59.5316 29.9037L59.2673 29.3032ZM57.3811 28.9915C56.7156 28.9915 56.1413 28.8744 55.6465 28.6544L55.1136 29.8535C55.7996 30.1584 56.5595 30.3037 57.3811 30.3037V28.9915ZM55.6557 28.6586C55.1497 28.4243 54.7686 28.1214 54.4913 27.7574L53.4476 28.5526C53.8701 29.1072 54.4294 29.5369 55.1044 29.8493L55.6557 28.6586ZM54.4973 27.7654C54.232 27.406 54.0919 27.019 54.0667 26.5911L52.7568 26.6681C52.7972 27.3556 53.0288 27.9855 53.4416 28.5446L54.4973 27.7654ZM53.4118 27.2857H55.7245V25.9735H53.4118V27.2857ZM55.0734 26.711C55.1402 27.2449 55.4068 27.6875 55.8301 28.0168L56.6357 26.981C56.4686 26.8511 56.3962 26.7142 56.3755 26.5482L55.0734 26.711ZM55.8393 28.0238C56.2777 28.3526 56.7996 28.4995 57.3647 28.4995V27.1873C57.0331 27.1873 56.8006 27.1045 56.6266 26.9741L55.8393 28.0238ZM57.3647 28.4995C57.8785 28.4995 58.3732 28.3983 58.7675 28.1115L57.9957 27.0503C57.9089 27.1135 57.7257 27.1873 57.3647 27.1873V28.4995ZM58.7563 28.1195C59.1593 27.8392 59.415 27.4251 59.415 26.9084H58.1028C58.1028 26.9401 58.0967 26.9528 58.0924 26.9606C58.0865 26.9711 58.0667 27.0008 58.007 27.0424L58.7563 28.1195ZM59.415 26.9084C59.415 26.6411 59.3434 26.378 59.1815 26.1468C59.0234 25.9208 58.8065 25.7644 58.5759 25.6573L58.0233 26.8474C58.0989 26.8825 58.1117 26.9065 58.1066 26.8992C58.1043 26.896 58.1023 26.8916 58.1014 26.8887C58.1007 26.8863 58.1028 26.8917 58.1028 26.9084H59.415ZM58.6016 25.6699C58.2398 25.4823 57.7066 25.3037 57.0417 25.1264L56.7036 26.3942C57.3509 26.5668 57.7689 26.7162 57.9976 26.8348L58.6016 25.6699ZM57.0269 25.1226C56.3664 24.9628 55.8414 24.8019 55.4433 24.6427L54.9559 25.861C55.4326 26.0517 56.0229 26.2297 56.7183 26.398L57.0269 25.1226ZM55.4486 24.6448C55.1197 24.5099 54.8303 24.3032 54.5771 24.015L53.5914 24.8812C53.9724 25.3147 54.4265 25.6438 54.9506 25.8588L55.4486 24.6448ZM54.5845 24.0236C54.4055 23.8126 54.2811 23.4918 54.2811 22.9883H52.9689C52.9689 23.7096 53.1507 24.3619 53.584 24.8726L54.5845 24.0236ZM54.2811 22.9883C54.2811 22.6177 54.3832 22.2875 54.5929 21.981L53.51 21.2401C53.1511 21.7646 52.9689 22.353 52.9689 22.9883H54.2811ZM54.5863 21.9905C54.8041 21.684 55.121 21.425 55.5667 21.2249L55.0293 20.0279C54.4034 20.3089 53.8893 20.7061 53.5166 21.2305L54.5863 21.9905ZM55.5622 21.2269C56.0091 21.0303 56.5553 20.9216 57.2171 20.9216V19.6095C56.4135 19.6095 55.6804 19.7414 55.0338 20.0259L55.5622 21.2269ZM57.2171 20.9216C58.1888 20.9216 58.8878 21.1653 59.3844 21.5862L60.2328 20.5851C59.4391 19.9125 58.4105 19.6095 57.2171 19.6095V20.9216ZM59.3894 21.5904C59.8828 22.0001 60.1661 22.5544 60.2203 23.3139L61.5292 23.2204C61.4522 22.1429 61.0247 21.2428 60.2278 20.5809L59.3894 21.5904ZM60.8748 22.6111H58.6769V23.9232H60.8748V22.6111ZM59.3303 23.2078C59.2818 22.6749 59.0435 22.2179 58.6146 21.8919L57.8206 22.9366C57.9384 23.0261 58.0063 23.1377 58.0235 23.3266L59.3303 23.2078ZM58.6376 21.9102C58.2247 21.5661 57.7048 21.4301 57.1515 21.4301V22.7423C57.4948 22.7423 57.6856 22.825 57.7976 22.9183L58.6376 21.9102ZM57.1515 21.4301C56.6678 21.4301 56.1989 21.5172 55.8198 21.7699L56.5477 22.8617C56.6278 22.8083 56.8041 22.7423 57.1515 22.7423V21.4301ZM55.8075 21.7783C55.4084 22.0577 55.1996 22.4742 55.1996 22.9555H56.5118C56.5118 22.9082 56.5206 22.8916 56.5215 22.8899C56.5221 22.8889 56.528 22.8757 56.56 22.8533L55.8075 21.7783ZM55.1996 22.9555C55.1996 23.2236 55.2685 23.4857 55.4207 23.7195C55.5702 23.949 55.7776 24.1173 56.0051 24.2391L56.6248 23.0825C56.5461 23.0403 56.5239 23.009 56.5203 23.0035C56.5182 23.0002 56.5169 22.9975 56.5157 22.9933C56.5144 22.9886 56.5118 22.977 56.5118 22.9555H55.1996ZM56.0215 24.2476C56.3926 24.4332 56.9238 24.6054 57.5803 24.7723L57.9036 23.5006C57.2698 23.3395 56.8497 23.1946 56.6084 23.074L56.0215 24.2476ZM57.5828 24.773C58.221 24.9325 58.7295 25.0931 59.1167 25.2519L59.6148 24.038C59.1491 23.8469 58.575 23.6685 57.9011 23.5L57.5828 24.773ZM59.1167 25.2519C59.4385 25.3839 59.7177 25.59 59.9583 25.8821L60.9712 25.048C60.5994 24.5965 60.146 24.2559 59.6148 24.038L59.1167 25.2519ZM59.9719 25.8981C60.1627 26.1152 60.2919 26.4339 60.3008 26.9204L61.6128 26.8965C61.5997 26.1802 61.401 25.5366 60.9575 25.032L59.9719 25.8981ZM60.3007 26.9084C60.3007 27.3015 60.193 27.638 59.9791 27.939L61.0487 28.6991C61.4253 28.169 61.6129 27.5652 61.6129 26.9084H60.3007ZM59.9724 27.9486C59.7692 28.2455 59.4589 28.5021 59.0031 28.7026L59.5316 29.9037C60.1693 29.6231 60.69 29.2236 61.0554 28.6895L59.9724 27.9486ZM59.0089 28.7001C58.5717 28.8875 58.0345 28.9915 57.3811 28.9915V30.3037C58.1711 30.3037 58.8914 30.1781 59.5258 29.9062L59.0089 28.7001ZM65.5153 22.2994V21.6433H64.8592V22.2994H65.5153ZM65.7285 27.3677L65.2646 27.8316L65.2824 27.8495L65.3016 27.8659L65.7285 27.3677ZM67.5492 27.5645H68.2053V26.9084H67.5492V27.5645ZM67.5492 29.5V30.1561H68.2053V29.5H67.5492ZM63.2026 22.2994H63.8587V21.6433H63.2026V22.2994ZM62.1201 22.2994H61.464V22.9555H62.1201V22.2994ZM62.1201 20.4132V19.7571H61.464V20.4132H62.1201ZM63.2026 20.4132V21.0693H63.8587V20.4132H63.2026ZM63.2026 18.1661V17.51H62.5465V18.1661H63.2026ZM65.5153 18.1661H66.1714V17.51H65.5153V18.1661ZM65.5153 20.4132H64.8592V21.0693H65.5153V20.4132ZM67.5492 20.4132H68.2053V19.7571H67.5492V20.4132ZM67.5492 22.2994V22.9555H68.2053V22.2994H67.5492ZM64.8592 22.2994V26.6952H66.1714V22.2994H64.8592ZM64.8592 26.6952C64.8592 27.086 64.9481 27.5151 65.2646 27.8316L66.1925 26.9038C66.2074 26.9187 66.2032 26.9236 66.194 26.8947C66.1839 26.8627 66.1714 26.8002 66.1714 26.6952H64.8592ZM65.3016 27.8659C65.6342 28.151 66.0812 28.2206 66.483 28.2206V26.9084C66.346 26.9084 66.2543 26.8953 66.1976 26.8805C66.1413 26.8658 66.1378 26.8544 66.1555 26.8696L65.3016 27.8659ZM66.483 28.2206H67.5492V26.9084H66.483V28.2206ZM66.8931 27.5645V29.5H68.2053V27.5645H66.8931ZM67.5492 28.8439H66.1058V30.1561H67.5492V28.8439ZM66.1058 28.8439C65.2346 28.8439 64.7025 28.6321 64.3856 28.3242C64.0722 28.0197 63.8587 27.5132 63.8587 26.6788H62.5465C62.5465 27.7252 62.8168 28.6294 63.4712 29.2652C64.122 29.8977 65.0416 30.1561 66.1058 30.1561V28.8439ZM63.8587 26.6788V22.2994H62.5465V26.6788H63.8587ZM63.2026 21.6433H62.1201V22.9555H63.2026V21.6433ZM62.7761 22.2994V20.4132H61.464V22.2994H62.7761ZM62.1201 21.0693H63.2026V19.7571H62.1201V21.0693ZM63.8587 20.4132V18.1661H62.5465V20.4132H63.8587ZM63.2026 18.8222H65.5153V17.51H63.2026V18.8222ZM64.8592 18.1661V20.4132H66.1714V18.1661H64.8592ZM65.5153 21.0693H67.5492V19.7571H65.5153V21.0693ZM66.8931 20.4132V22.2994H68.2053V20.4132H66.8931ZM67.5492 21.6433H65.5153V22.9555H67.5492V21.6433ZM70.8738 29.0735L70.5522 29.6454L70.559 29.6492L70.8738 29.0735ZM69.2172 27.4169L68.6432 27.7348L68.647 27.7415L69.2172 27.4169ZM69.2336 22.4963L68.6672 22.1651L68.6634 22.1717L69.2336 22.4963ZM70.923 20.856L71.2341 21.4337L71.2409 21.43L70.923 20.856ZM75.6797 20.856L75.3618 21.43L75.3686 21.4337L75.6797 20.856ZM77.3527 22.4963L76.7825 22.8208L76.7863 22.8274L77.3527 22.4963ZM77.3363 27.4169L76.7737 27.0793L76.7699 27.0858L77.3363 27.4169ZM75.6305 29.0735L75.9415 29.6512L75.9446 29.6495L75.6305 29.0735ZM74.4003 27.3513L74.7145 27.9273L74.7204 27.924L74.4003 27.3513ZM75.286 26.4328L75.8632 26.7448L75.8632 26.7448L75.286 26.4328ZM74.9252 22.9719L74.4503 23.4247L74.4557 23.4303L74.4613 23.4358L74.9252 22.9719ZM71.6119 22.9719L71.1371 22.5192L71.1368 22.5194L71.6119 22.9719ZM71.5955 26.9577L71.1096 27.3984L71.1149 27.4043L71.1204 27.4101L71.5955 26.9577ZM73.2358 28.9915C72.4601 28.9915 71.7828 28.8228 71.1886 28.4979L70.559 29.6492C71.3645 30.0897 72.2618 30.3037 73.2358 30.3037V28.9915ZM71.1955 28.5017C70.6014 28.1675 70.1343 27.7017 69.7874 27.0924L68.647 27.7415C69.1093 28.5537 69.7466 29.1922 70.5522 29.6454L71.1955 28.5017ZM69.7912 27.099C69.4587 26.4988 69.2828 25.791 69.2828 24.9566H67.9706C67.9706 25.9811 68.1884 26.9135 68.6433 27.7348L69.7912 27.099ZM69.2828 24.9566C69.2828 24.1251 69.4628 23.4198 69.8038 22.8208L68.6634 22.1717C68.1952 22.9942 67.9706 23.9291 67.9706 24.9566H69.2828ZM69.8 22.8274C70.156 22.2185 70.6317 21.7581 71.2341 21.4337L70.612 20.2784C69.7929 20.7194 69.1423 21.3525 68.6672 22.1651L69.8 22.8274ZM71.2409 21.43C71.847 21.0943 72.529 20.9216 73.3014 20.9216V19.6095C72.3242 19.6095 71.4206 19.8305 70.6052 20.2821L71.2409 21.43ZM73.3014 20.9216C74.0737 20.9216 74.7557 21.0943 75.3618 21.43L75.9976 20.2821C75.1821 19.8305 74.2786 19.6095 73.3014 19.6095V20.9216ZM75.3686 21.4337C75.9695 21.7572 76.438 22.2156 76.7825 22.8208L77.9229 22.1717C77.4582 21.3554 76.8114 20.7203 75.9907 20.2784L75.3686 21.4337ZM76.7863 22.8274C77.1358 23.4252 77.3199 24.1282 77.3199 24.9566H78.6321C78.6321 23.9261 78.4006 22.9888 77.9191 22.1651L76.7863 22.8274ZM77.3199 24.9566C77.3199 25.7819 77.1318 26.4825 76.7737 27.0794L77.8989 27.7545C78.3937 26.9298 78.6321 25.9902 78.6321 24.9566H77.3199ZM76.7699 27.0858C76.4145 27.6937 75.9331 28.1612 75.3163 28.4976L75.9446 29.6495C76.7713 29.1986 77.427 28.5617 77.9027 27.748L76.7699 27.0858ZM75.3194 28.4959C74.7133 28.8222 74.0237 28.9915 73.2358 28.9915V30.3037C74.2193 30.3037 75.1261 30.0903 75.9415 29.6512L75.3194 28.4959ZM73.2358 28.3026C73.7598 28.3026 74.2562 28.1773 74.7145 27.9273L74.0861 26.7753C73.8228 26.919 73.5428 26.9905 73.2358 26.9905V28.3026ZM74.7204 27.924C75.2096 27.6507 75.5902 27.2498 75.8632 26.7448L74.7089 26.1208C74.5445 26.425 74.3346 26.6364 74.0803 26.7786L74.7204 27.924ZM75.8632 26.7448C76.1455 26.2226 76.2702 25.6173 76.2702 24.9566H74.958C74.958 25.455 74.864 25.8338 74.7089 26.1208L75.8632 26.7448ZM76.2702 24.9566C76.2702 23.9781 76.0079 23.1267 75.3891 22.508L74.4613 23.4358C74.761 23.7356 74.958 24.2074 74.958 24.9566H76.2702ZM75.4 22.5192C74.8265 21.9177 74.1021 21.6105 73.2686 21.6105V22.9227C73.7472 22.9227 74.1272 23.0858 74.4503 23.4247L75.4 22.5192ZM73.2686 21.6105C72.4351 21.6105 71.7106 21.9177 71.1371 22.5192L72.0868 23.4247C72.4099 23.0858 72.7899 22.9227 73.2686 22.9227V21.6105ZM71.1368 22.5194C70.5465 23.1393 70.2998 23.9863 70.2998 24.9566H71.6119C71.6119 24.1991 71.8025 23.7231 72.087 23.4244L71.1368 22.5194ZM70.2998 24.9566C70.2998 25.924 70.5394 26.7698 71.1096 27.3984L72.0815 26.5169C71.7988 26.2052 71.6119 25.7169 71.6119 24.9566H70.2998ZM71.1204 27.4101C71.6864 28.0044 72.4071 28.3026 73.2358 28.3026V26.9905C72.7523 26.9905 72.3795 26.8295 72.0706 26.5052L71.1204 27.4101ZM81.9567 21.8238H81.3007V24.1474L82.5159 22.1669L81.9567 21.8238ZM83.1049 20.692L82.7808 20.1215L82.7751 20.1248L83.1049 20.692ZM84.7451 20.282H85.4012V19.6259H84.7451V20.282ZM84.7451 22.6931V23.3492H85.4012V22.6931H84.7451ZM82.498 23.2015L82.0559 22.7167L82.0488 22.7234L82.498 23.2015ZM81.9567 29.5V30.1561H82.6128V29.5H81.9567ZM79.6604 29.5H79.0043V30.1561H79.6604V29.5ZM79.6604 20.4132V19.7571H79.0043V20.4132H79.6604ZM81.9567 20.4132H82.6128V19.7571H81.9567V20.4132ZM82.5159 22.1669C82.7566 21.7747 83.0619 21.4759 83.4347 21.2592L82.7751 20.1248C82.2075 20.4548 81.7473 20.9106 81.3975 21.4806L82.5159 22.1669ZM83.429 21.2624C83.8011 21.051 84.234 20.938 84.7451 20.938V19.6259C84.0315 19.6259 83.371 19.7862 82.7808 20.1216L83.429 21.2624ZM84.089 20.282V22.6931H85.4012V20.282H84.089ZM84.7451 22.037H84.1382V23.3492H84.7451V22.037ZM84.1382 22.037C83.3235 22.037 82.5922 22.2278 82.056 22.7167L82.9401 23.6864C83.1474 23.4973 83.5096 23.3492 84.1382 23.3492V22.037ZM82.0488 22.7234C81.4885 23.2497 81.3007 24.0699 81.3007 24.973H82.6128C82.6128 24.1921 82.7858 23.8313 82.9472 23.6797L82.0488 22.7234ZM81.3007 24.973V29.5H82.6128V24.973H81.3007ZM81.9567 28.8439H79.6604V30.1561H81.9567V28.8439ZM80.3165 29.5V20.4132H79.0043V29.5H80.3165ZM79.6604 21.0693H81.9567V19.7571H79.6604V21.0693ZM81.3007 20.4132V21.8238H82.6128V20.4132H81.3007ZM94.985 20.4132L95.5898 20.6674L95.9724 19.7571H94.985V20.4132ZM89.359 33.7974V34.4535H89.7949L89.9638 34.0516L89.359 33.7974ZM86.9151 33.7974L86.3134 33.5358L85.9144 34.4535H86.9151V33.7974ZM88.8833 29.2704L89.485 29.532L89.5957 29.2775L89.4902 29.0209L88.8833 29.2704ZM85.2421 20.4132V19.7571H84.263L84.6352 20.6626L85.2421 20.4132ZM87.8172 20.4132L88.4326 20.1858L88.2742 19.7571H87.8172V20.4132ZM90.1627 26.7608L89.5473 26.9882L90.1584 28.6422L90.7771 26.991L90.1627 26.7608ZM92.541 20.4132V19.7571H92.0862L91.9267 20.183L92.541 20.4132ZM94.3801 20.1589L88.7542 33.5431L89.9638 34.0516L95.5898 20.6674L94.3801 20.1589ZM89.359 33.1413H86.9151V34.4535H89.359V33.1413ZM87.5168 34.059L89.485 29.532L88.2817 29.0088L86.3134 33.5358L87.5168 34.059ZM89.4902 29.0209L85.8489 20.1637L84.6352 20.6626L88.2765 29.5198L89.4902 29.0209ZM85.2421 21.0693H87.8172V19.7571H85.2421V21.0693ZM87.2018 20.6406L89.5473 26.9882L90.7781 26.5334L88.4326 20.1858L87.2018 20.6406ZM90.7771 26.991L93.1554 20.6434L91.9267 20.183L89.5483 26.5306L90.7771 26.991ZM92.541 21.0693H94.985V19.7571H92.541V21.0693ZM98.5191 21.7418H97.863V23.8864L99.0629 22.1088L98.5191 21.7418ZM99.7329 20.6756L99.4298 20.0937L99.4248 20.0964L99.7329 20.6756ZM103.62 20.8396L103.277 21.3987L103.281 21.4014L103.62 20.8396ZM105.113 22.4799L104.528 22.7769L104.533 22.7877L105.113 22.4799ZM105.113 27.4005L104.53 27.1001L104.528 27.1035L105.113 27.4005ZM103.62 29.0571L103.274 28.4997L103.27 28.5024L103.62 29.0571ZM99.7329 29.254L99.4196 29.8304L99.427 29.8344L99.4345 29.8383L99.7329 29.254ZM98.5191 28.2042L99.0521 27.8216L97.863 26.1654V28.2042H98.5191ZM98.5191 29.5V30.1561H99.1752V29.5H98.5191ZM96.2228 29.5H95.5667V30.1561H96.2228V29.5ZM96.2228 17.3624V16.7063H95.5667V17.3624H96.2228ZM98.5191 17.3624H99.1752V16.7063H98.5191V17.3624ZM102.981 23.5132L102.403 23.8252L102.408 23.8346L102.414 23.8438L102.981 23.5132ZM102.095 22.5947L101.767 23.1633L101.775 23.1674L102.095 22.5947ZM99.7329 22.6111L100.06 23.1797L100.066 23.1766L99.7329 22.6111ZM98.8472 23.5296L98.2765 23.2057L98.27 23.2176L98.8472 23.5296ZM98.8472 26.3836L98.2699 26.6956L98.2766 26.7074L98.8472 26.3836ZM99.7329 27.3185L99.3928 27.8796L99.4027 27.8856L99.4128 27.8912L99.7329 27.3185ZM102.095 27.3021L101.762 26.7365L101.755 26.741L102.095 27.3021ZM102.981 26.3672L102.41 26.0433L102.403 26.0552L102.981 26.3672ZM99.0629 22.1088C99.2921 21.7693 99.6118 21.4831 100.041 21.2548L99.4248 20.0964C98.8261 20.4148 98.3366 20.8395 97.9753 21.3747L99.0629 22.1088ZM100.036 21.2575C100.456 21.0388 100.946 20.9216 101.521 20.9216V19.6095C100.762 19.6095 100.06 19.7657 99.4298 20.0937L100.036 21.2575ZM101.521 20.9216C102.184 20.9216 102.763 21.0834 103.277 21.3987L103.964 20.2805C103.231 19.8304 102.411 19.6095 101.521 19.6095V20.9216ZM103.281 21.4014C103.802 21.7158 104.218 22.167 104.528 22.7769L105.698 22.1828C105.286 21.3712 104.707 20.7289 103.959 20.2779L103.281 21.4014ZM104.533 22.7877C104.847 23.3775 105.014 24.0831 105.014 24.9238H106.327C106.327 23.9056 106.122 22.9818 105.692 22.172L104.533 22.7877ZM105.014 24.9238C105.014 25.764 104.847 26.4839 104.53 27.1001L105.696 27.701C106.122 26.8737 106.327 25.9425 106.327 24.9238H105.014ZM104.528 27.1035C104.217 27.7148 103.799 28.1737 103.274 28.4997L103.966 29.6146C104.709 29.1533 105.286 28.5078 105.698 27.6975L104.528 27.1035ZM103.27 28.5024C102.757 28.8263 102.18 28.9915 101.521 28.9915V30.3037C102.414 30.3037 103.237 30.0753 103.971 29.6119L103.27 28.5024ZM101.521 28.9915C100.928 28.9915 100.438 28.8773 100.031 28.6697L99.4345 29.8383C100.056 30.1555 100.757 30.3037 101.521 30.3037V28.9915ZM100.046 28.6775C99.6221 28.447 99.2955 28.1606 99.0521 27.8216L97.9862 28.5869C98.3551 29.1007 98.8377 29.5142 99.4196 29.8304L100.046 28.6775ZM97.863 28.2042V29.5H99.1752V28.2042H97.863ZM98.5191 28.8439H96.2228V30.1561H98.5191V28.8439ZM96.8789 29.5V17.3624H95.5667V29.5H96.8789ZM96.2228 18.0184H98.5191V16.7063H96.2228V18.0184ZM97.863 17.3624V21.7418H99.1752V17.3624H97.863ZM103.981 24.9238C103.981 24.2841 103.846 23.6949 103.547 23.1826L102.414 23.8438C102.574 24.1188 102.669 24.47 102.669 24.9238H103.981ZM103.558 23.2012C103.285 22.6962 102.904 22.2953 102.415 22.0219L101.775 23.1674C102.029 23.3095 102.239 23.521 102.403 23.8252L103.558 23.2012ZM102.422 22.0261C101.959 21.7596 101.452 21.6269 100.914 21.6269V22.9391C101.228 22.9391 101.509 23.0143 101.767 23.1632L102.422 22.0261ZM100.914 21.6269C100.377 21.6269 99.8688 21.7699 99.4002 22.0456L100.066 23.1766C100.341 23.0148 100.62 22.9391 100.914 22.9391V21.6269ZM99.4055 22.0425C98.9317 22.3153 98.5571 22.7116 98.2766 23.2057L99.4178 23.8534C99.5966 23.5384 99.8124 23.3224 100.06 23.1796L99.4055 22.0425ZM98.27 23.2176C97.9906 23.7346 97.863 24.3214 97.863 24.9566H99.1752C99.1752 24.4982 99.2664 24.1338 99.4243 23.8416L98.27 23.2176ZM97.863 24.9566C97.863 25.5917 97.9906 26.1786 98.27 26.6956L99.4243 26.0716C99.2664 25.7794 99.1752 25.4149 99.1752 24.9566H97.863ZM98.2766 26.7074C98.5557 27.1993 98.9266 27.597 99.3928 27.8796L100.073 26.7574C99.8175 26.6026 99.5979 26.3771 99.4178 26.0597L98.2766 26.7074ZM99.4128 27.8912C99.8799 28.1522 100.383 28.2862 100.914 28.2862V26.9741C100.613 26.9741 100.329 26.9003 100.053 26.7458L99.4128 27.8912ZM100.914 28.2862C101.459 28.2862 101.97 28.1447 102.435 27.8632L101.755 26.741C101.498 26.8969 101.222 26.9741 100.914 26.9741V28.2862ZM102.427 27.8676C102.909 27.5842 103.286 27.1817 103.558 26.6792L102.403 26.0552C102.238 26.3618 102.024 26.5826 101.762 26.7366L102.427 27.8676ZM103.551 26.691C103.847 26.1698 103.981 25.5724 103.981 24.9238H102.669C102.669 25.3905 102.573 25.7554 102.41 26.0433L103.551 26.691ZM109.012 29.0735L108.691 29.6454L108.697 29.6492L109.012 29.0735ZM107.356 27.4169L106.782 27.7348L106.785 27.7415L107.356 27.4169ZM107.372 22.4963L106.806 22.1651L106.802 22.1717L107.372 22.4963ZM109.061 20.856L109.372 21.4337L109.379 21.43L109.061 20.856ZM113.818 20.856L113.5 21.43L113.507 21.4337L113.818 20.856ZM115.491 22.4963L114.921 22.8208L114.925 22.8274L115.491 22.4963ZM115.475 27.4169L114.912 27.0793L114.908 27.0858L115.475 27.4169ZM113.769 29.0735L114.08 29.6512L114.083 29.6495L113.769 29.0735ZM112.539 27.3513L112.853 27.9273L112.859 27.924L112.539 27.3513ZM113.424 26.4328L114.002 26.7448L114.002 26.7448L113.424 26.4328ZM113.064 22.9719L112.589 23.4247L112.594 23.4303L112.6 23.4358L113.064 22.9719ZM109.75 22.9719L109.275 22.5192L109.275 22.5194L109.75 22.9719ZM109.734 26.9577L109.248 27.3984L109.253 27.4043L109.259 27.4101L109.734 26.9577ZM111.374 28.9915C110.598 28.9915 109.921 28.8228 109.327 28.4979L108.697 29.6492C109.503 30.0897 110.4 30.3037 111.374 30.3037V28.9915ZM109.334 28.5017C108.74 28.1675 108.273 27.7017 107.926 27.0924L106.785 27.7415C107.248 28.5537 107.885 29.1922 108.691 29.6454L109.334 28.5017ZM107.93 27.099C107.597 26.4988 107.421 25.791 107.421 24.9566H106.109C106.109 25.9811 106.327 26.9135 106.782 27.7348L107.93 27.099ZM107.421 24.9566C107.421 24.1251 107.601 23.4198 107.942 22.8208L106.802 22.1717C106.334 22.9942 106.109 23.9291 106.109 24.9566H107.421ZM107.938 22.8274C108.294 22.2185 108.77 21.7581 109.372 21.4337L108.75 20.2784C107.931 20.7194 107.281 21.3525 106.806 22.1651L107.938 22.8274ZM109.379 21.43C109.985 21.0943 110.667 20.9216 111.44 20.9216V19.6095C110.463 19.6095 109.559 19.8305 108.744 20.2821L109.379 21.43ZM111.44 20.9216C112.212 20.9216 112.894 21.0943 113.5 21.43L114.136 20.2821C113.32 19.8305 112.417 19.6095 111.44 19.6095V20.9216ZM113.507 21.4337C114.108 21.7572 114.576 22.2156 114.921 22.8208L116.061 22.1717C115.597 21.3554 114.95 20.7203 114.129 20.2784L113.507 21.4337ZM114.925 22.8274C115.274 23.4252 115.458 24.1282 115.458 24.9566H116.77C116.77 23.9261 116.539 22.9888 116.057 22.1651L114.925 22.8274ZM115.458 24.9566C115.458 25.7819 115.27 26.4825 114.912 27.0794L116.037 27.7545C116.532 26.9298 116.77 25.9902 116.77 24.9566H115.458ZM114.908 27.0858C114.553 27.6937 114.071 28.1612 113.455 28.4976L114.083 29.6495C114.91 29.1986 115.565 28.5617 116.041 27.748L114.908 27.0858ZM113.458 28.4959C112.852 28.8222 112.162 28.9915 111.374 28.9915V30.3037C112.358 30.3037 113.264 30.0903 114.08 29.6512L113.458 28.4959ZM111.374 28.3026C111.898 28.3026 112.395 28.1773 112.853 27.9273L112.225 26.7753C111.961 26.919 111.681 26.9905 111.374 26.9905V28.3026ZM112.859 27.924C113.348 27.6507 113.729 27.2498 114.002 26.7448L112.847 26.1208C112.683 26.425 112.473 26.6364 112.219 26.7786L112.859 27.924ZM114.002 26.7448C114.284 26.2226 114.409 25.6173 114.409 24.9566H113.096C113.096 25.455 113.002 25.8338 112.847 26.1208L114.002 26.7448ZM114.409 24.9566C114.409 23.9781 114.146 23.1267 113.527 22.508L112.6 23.4358C112.899 23.7356 113.096 24.2074 113.096 24.9566H114.409ZM113.538 22.5192C112.965 21.9177 112.24 21.6105 111.407 21.6105V22.9227C111.886 22.9227 112.266 23.0858 112.589 23.4247L113.538 22.5192ZM111.407 21.6105C110.573 21.6105 109.849 21.9177 109.275 22.5192L110.225 23.4247C110.548 23.0858 110.928 22.9227 111.407 22.9227V21.6105ZM109.275 22.5194C108.685 23.1393 108.438 23.9863 108.438 24.9566H109.75C109.75 24.1991 109.941 23.7231 110.225 23.4244L109.275 22.5194ZM108.438 24.9566C108.438 25.924 108.678 26.7698 109.248 27.3984L110.22 26.5169C109.937 26.2052 109.75 25.7169 109.75 24.9566H108.438ZM109.259 27.4101C109.825 28.0044 110.545 28.3026 111.374 28.3026V26.9905C110.891 26.9905 110.518 26.8295 110.209 26.5052L109.259 27.4101ZM119.472 29.0735L119.15 29.6454L119.157 29.6492L119.472 29.0735ZM117.815 27.4169L117.241 27.7348L117.245 27.7415L117.815 27.4169ZM117.832 22.4963L117.265 22.1651L117.261 22.1717L117.832 22.4963ZM119.521 20.856L119.832 21.4337L119.839 21.43L119.521 20.856ZM124.278 20.856L123.96 21.43L123.967 21.4337L124.278 20.856ZM125.951 22.4963L125.38 22.8208L125.384 22.8274L125.951 22.4963ZM125.934 27.4169L125.372 27.0793L125.368 27.0858L125.934 27.4169ZM124.228 29.0735L124.54 29.6512L124.543 29.6495L124.228 29.0735ZM122.998 27.3513L123.312 27.9273L123.318 27.924L122.998 27.3513ZM123.884 26.4328L124.461 26.7448L124.461 26.7448L123.884 26.4328ZM123.523 22.9719L123.048 23.4247L123.054 23.4303L123.059 23.4358L123.523 22.9719ZM120.21 22.9719L119.735 22.5192L119.735 22.5194L120.21 22.9719ZM120.194 26.9577L119.708 27.3984L119.713 27.4043L119.718 27.4101L120.194 26.9577ZM121.834 28.9915C121.058 28.9915 120.381 28.8228 119.787 28.4979L119.157 29.6492C119.962 30.0897 120.86 30.3037 121.834 30.3037V28.9915ZM119.793 28.5017C119.199 28.1675 118.732 27.7017 118.385 27.0924L117.245 27.7415C117.707 28.5537 118.345 29.1922 119.15 29.6454L119.793 28.5017ZM118.389 27.099C118.057 26.4988 117.881 25.791 117.881 24.9566H116.569C116.569 25.9811 116.786 26.9135 117.241 27.7348L118.389 27.099ZM117.881 24.9566C117.881 24.1251 118.061 23.4198 118.402 22.8208L117.261 22.1717C116.793 22.9942 116.569 23.9291 116.569 24.9566H117.881ZM118.398 22.8274C118.754 22.2185 119.23 21.7581 119.832 21.4337L119.21 20.2784C118.391 20.7194 117.74 21.3525 117.265 22.1651L118.398 22.8274ZM119.839 21.43C120.445 21.0943 121.127 20.9216 121.899 20.9216V19.6095C120.922 19.6095 120.019 19.8305 119.203 20.2821L119.839 21.43ZM121.899 20.9216C122.672 20.9216 123.354 21.0943 123.96 21.43L124.596 20.2821C123.78 19.8305 122.877 19.6095 121.899 19.6095V20.9216ZM123.967 21.4337C124.567 21.7572 125.036 22.2156 125.381 22.8208L126.521 22.1717C126.056 21.3554 125.409 20.7203 124.589 20.2784L123.967 21.4337ZM125.384 22.8274C125.734 23.4252 125.918 24.1282 125.918 24.9566H127.23C127.23 23.9261 126.999 22.9888 126.517 22.1651L125.384 22.8274ZM125.918 24.9566C125.918 25.7819 125.73 26.4825 125.372 27.0794L126.497 27.7545C126.992 26.9298 127.23 25.9902 127.23 24.9566H125.918ZM125.368 27.0858C125.013 27.6937 124.531 28.1612 123.914 28.4976L124.543 29.6495C125.369 29.1986 126.025 28.5617 126.501 27.748L125.368 27.0858ZM123.917 28.4959C123.311 28.8222 122.622 28.9915 121.834 28.9915V30.3037C122.817 30.3037 123.724 30.0903 124.54 29.6512L123.917 28.4959ZM121.834 28.3026C122.358 28.3026 122.854 28.1773 123.312 27.9273L122.684 26.7753C122.421 26.919 122.141 26.9905 121.834 26.9905V28.3026ZM123.318 27.924C123.808 27.6507 124.188 27.2498 124.461 26.7448L123.307 26.1208C123.142 26.425 122.933 26.6364 122.678 26.7786L123.318 27.924ZM124.461 26.7448C124.743 26.2226 124.868 25.6173 124.868 24.9566H123.556C123.556 25.455 123.462 25.8338 123.307 26.1208L124.461 26.7448ZM124.868 24.9566C124.868 23.9781 124.606 23.1267 123.987 22.508L123.059 23.4358C123.359 23.7356 123.556 24.2074 123.556 24.9566H124.868ZM123.998 22.5192C123.424 21.9177 122.7 21.6105 121.867 21.6105V22.9227C122.345 22.9227 122.725 23.0858 123.048 23.4247L123.998 22.5192ZM121.867 21.6105C121.033 21.6105 120.309 21.9177 119.735 22.5192L120.685 23.4247C121.008 23.0858 121.388 22.9227 121.867 22.9227V21.6105ZM119.735 22.5194C119.145 23.1393 118.898 23.9863 118.898 24.9566H120.21C120.21 24.1991 120.401 23.7231 120.685 23.4244L119.735 22.5194ZM118.898 24.9566C118.898 25.924 119.137 26.7698 119.708 27.3984L120.679 26.5169C120.397 26.2052 120.21 25.7169 120.21 24.9566H118.898ZM119.718 27.4101C120.284 28.0044 121.005 28.3026 121.834 28.3026V26.9905C121.35 26.9905 120.977 26.8295 120.669 26.5052L119.718 27.4101ZM133.638 29.5L133.125 29.9088L133.322 30.1561H133.638V29.5ZM130.555 25.6291L131.068 25.2203L129.899 23.7525V25.6291H130.555ZM130.555 29.5V30.1561H131.211V29.5H130.555ZM128.258 29.5H127.602V30.1561H128.258V29.5ZM128.258 17.3624V16.7063H127.602V17.3624H128.258ZM130.555 17.3624H131.211V16.7063H130.555V17.3624ZM130.555 24.2677H129.899V26.1538L131.069 24.6749L130.555 24.2677ZM133.606 20.4132V19.7571H133.288L133.091 20.006L133.606 20.4132ZM136.591 20.4132L137.084 20.846L138.04 19.7571H136.591V20.4132ZM132.589 24.973L132.095 24.5402L131.713 24.9763L132.099 25.4095L132.589 24.973ZM136.624 29.5V30.1561H138.087L137.113 29.0635L136.624 29.5ZM134.152 29.0912L131.068 25.2203L130.042 26.0379L133.125 29.9088L134.152 29.0912ZM129.899 25.6291V29.5H131.211V25.6291H129.899ZM130.555 28.8439H128.258V30.1561H130.555V28.8439ZM128.914 29.5V17.3624H127.602V29.5H128.914ZM128.258 18.0184H130.555V16.7063H128.258V18.0184ZM129.899 17.3624V24.2677H131.211V17.3624H129.899ZM131.069 24.6749L134.12 20.8204L133.091 20.006L130.04 23.8605L131.069 24.6749ZM133.606 21.0693H136.591V19.7571H133.606V21.0693ZM136.098 19.9804L132.095 24.5402L133.082 25.4058L137.084 20.846L136.098 19.9804ZM132.099 25.4095L136.134 29.9365L137.113 29.0635L133.078 24.5364L132.099 25.4095ZM136.624 28.8439H133.638V30.1561H136.624V28.8439Z" fill="#29BC9B"/>
<rect x="139.37" y="17.0291" width="22.1218" height="13.9419" rx="1.4762" fill="#29BC9B" fill-opacity="0.3"/>
<path d="M147.628 21.2756V24.8185C147.628 25.2067 147.729 25.5047 147.932 25.7124C148.134 25.9147 148.418 26.0159 148.785 26.0159C149.156 26.0159 149.443 25.9147 149.646 25.7124C149.848 25.5047 149.949 25.2067 149.949 24.8185V21.2756H151.106V24.8103C151.106 25.2969 150.999 25.7097 150.786 26.0487C150.578 26.3822 150.296 26.6337 149.941 26.8032C149.591 26.9727 149.2 27.0574 148.768 27.0574C148.342 27.0574 147.954 26.9727 147.604 26.8032C147.259 26.6337 146.986 26.3822 146.784 26.0487C146.581 25.7097 146.48 25.2969 146.48 24.8103V21.2756H147.628ZM153.363 21.2756V27H152.215V21.2756H153.363Z" fill="#29BC9B"/>
<defs>
<linearGradient id="paint0_linear_13_54" x1="16.5393" y1="26.5013" x2="9.8144" y2="21.4166" gradientUnits="userSpaceOnUse">
<stop stop-color="#29BC9B"/>
<stop offset="1" stop-color="#208457"/>
</linearGradient>
</defs>
</svg>
