<svg width="160" height="48" viewBox="0 0 160 48" fill="none" xmlns="http://www.w3.org/2000/svg">
<rect width="160" height="48" fill="#111111"/>
<path fill-rule="evenodd" clip-rule="evenodd" d="M38.3121 11.9163V25.916C38.3121 30.5909 36.2427 32.5323 31.3889 32.5323C26.5348 32.5323 24.4654 30.5909 24.4654 25.916V11.3031H19.7905C19.3819 11.3031 19.1772 11.5077 19.1772 11.9163V26.1457C19.1772 33.9634 24.159 36.6969 31.3889 36.6969C38.6185 36.6969 43.6002 33.9634 43.6002 26.1457V11.3031H38.9249C38.5163 11.3031 38.3121 11.5077 38.3121 11.9163Z" fill="white"/>
<path fill-rule="evenodd" clip-rule="evenodd" d="M106.084 15.3651C106.467 15.3651 106.646 15.2376 106.774 14.9562L108.128 11.6095C108.205 11.4056 108.128 11.3031 107.923 11.3031H89.0953C87.3323 11.3031 86.6686 11.8396 86.6686 13.0402V34.7805C86.6686 35.8027 87.1789 36.2625 88.5334 36.2625H106.084C106.467 36.2625 106.646 36.1346 106.774 35.854L108.128 32.5069C108.205 32.3026 108.128 32.2005 107.923 32.2005H91.8546V27.7807C91.8546 26.2478 92.6976 25.5579 94.9708 25.5579H101.946C102.329 25.5579 102.507 25.4307 102.635 25.1498L103.938 21.9306C104.015 21.7259 103.938 21.6242 103.734 21.6242H91.8546V15.3651H106.084Z" fill="white"/>
<path fill-rule="evenodd" clip-rule="evenodd" d="M68.034 32.2517H58.8089V27.6786C58.8089 26.1457 59.6518 25.4562 61.9259 25.4562H68.034C70.9718 25.4562 71.7893 26.5801 71.7893 28.8796C71.7893 31.1787 70.9718 32.2517 68.034 32.2517ZM58.8089 15.3139H67.0631C69.822 15.3139 70.5887 16.3532 70.5887 18.5072C70.5887 20.6616 69.822 21.7009 67.0631 21.7009H58.8089V15.3139ZM72.9391 23.1058C74.9826 22.0327 75.8255 20.0146 75.8255 17.6388C75.8255 12.1206 71.3295 11.3031 66.68 11.3031H56.0525C54.2895 11.3031 53.6258 11.8396 53.6258 13.0402V34.7805C53.6258 35.8027 54.1365 36.2625 55.4905 36.2625H68.5706C73.501 36.2625 77.0262 34.3466 77.0262 29.3648C77.0262 26.3758 75.7488 23.8466 72.9391 23.1058Z" fill="white"/>
<path fill-rule="evenodd" clip-rule="evenodd" d="M131.004 22.8757H122.318V15.3143H131.004C134.248 15.3143 134.963 16.5658 134.963 19.095C134.963 21.6496 134.248 22.8757 131.004 22.8757ZM140.763 35.8282L135.168 26.2224C137.952 25.5074 140.201 23.6682 140.201 18.9928C140.201 12.9385 136.445 11.3031 130.237 11.3031H119.559C117.796 11.3031 117.132 11.8396 117.132 13.0402V35.6493C117.132 36.0579 117.336 36.2625 117.745 36.2625H122.318V28.9817C122.318 27.4489 123.161 26.7589 125.435 26.7589H130.033L135.091 35.854C135.244 36.1091 135.398 36.2625 135.781 36.2625H140.533C140.865 36.2625 140.865 35.9812 140.763 35.8282Z" fill="white"/>
</svg>
